<svg xmlns="http://www.w3.org/2000/svg" xmlns:xlink="http://www.w3.org/1999/xlink" xmlns:lucid="lucid" width="2501" height="2267.5"><g transform="translate(2465.166666679022 888.3333333443699)" lucid:page-tab-id="0_0"><path d="M-1094.67-381.83a6 6 0 0 1 6-6h438a6 6 0 0 1 6 6v312a6 6 0 0 1-6 6h-438a6 6 0 0 1-6-6z" stroke="#3a414a" fill="#fff"/><path d="M-1094.67-318.5h450m-450 127.5h450" stroke="#3a414a" fill="none"/><use xlink:href="#a" transform="matrix(1,0,0,1,-1086.6666666666665,-379.83333333333326) translate(159.12962962962968 18.111111111111118)"/><use xlink:href="#b" transform="matrix(1,0,0,1,-1086.6666666666665,-379.83333333333326) translate(151.59876543209882 44.77777777777777)"/><use xlink:href="#c" transform="matrix(1,0,0,1,-1082.6666666666665,-310.49999999999994) translate(0 33.777777777777786)"/><use xlink:href="#d" transform="matrix(1,0,0,1,-1082.6666666666665,-310.49999999999994) translate(13.518518518518508 33.777777777777786)"/><use xlink:href="#e" transform="matrix(1,0,0,1,-1082.6666666666665,-310.49999999999994) translate(167.59259259259247 33.777777777777786)"/><use xlink:href="#f" transform="matrix(1,0,0,1,-1082.6666666666665,-310.49999999999994) translate(179.93827160493814 33.777777777777786)"/><use xlink:href="#g" transform="matrix(1,0,0,1,-1082.6666666666665,-310.49999999999994) translate(0 60.44444444444444)"/><use xlink:href="#h" transform="matrix(1,0,0,1,-1082.6666666666665,-310.49999999999994) translate(13.518518518518508 60.44444444444444)"/><use xlink:href="#i" transform="matrix(1,0,0,1,-1082.6666666666665,-310.49999999999994) translate(145.43209876543196 60.44444444444444)"/><use xlink:href="#j" transform="matrix(1,0,0,1,-1082.6666666666665,-310.49999999999994) translate(182.46913580246897 60.44444444444444)"/><use xlink:href="#g" transform="matrix(1,0,0,1,-1082.6666666666665,-310.49999999999994) translate(0 87.11111111111109)"/><use xlink:href="#k" transform="matrix(1,0,0,1,-1082.6666666666665,-310.49999999999994) translate(13.518518518518508 87.11111111111109)"/><use xlink:href="#l" transform="matrix(1,0,0,1,-1082.6666666666665,-310.49999999999994) translate(250.3703703703702 87.11111111111109)"/><use xlink:href="#m" transform="matrix(1,0,0,1,-1082.6666666666665,-310.49999999999994) translate(262.7160493827159 87.11111111111109)"/><use xlink:href="#n" transform="matrix(1,0,0,1,-1082.6666666666665,-183) translate(0 33.77777777777779)"/><use xlink:href="#o" transform="matrix(1,0,0,1,-1082.6666666666665,-183) translate(19.135802469135786 33.77777777777779)"/><use xlink:href="#p" transform="matrix(1,0,0,1,-1082.6666666666665,-183) translate(195.37037037037024 33.77777777777779)"/><use xlink:href="#q" transform="matrix(1,0,0,1,-1082.6666666666665,-183) translate(207.7160493827159 33.77777777777779)"/><use xlink:href="#n" transform="matrix(1,0,0,1,-1082.6666666666665,-183) translate(0 60.444444444444436)"/><use xlink:href="#r" transform="matrix(1,0,0,1,-1082.6666666666665,-183) translate(19.135802469135786 60.444444444444436)"/><use xlink:href="#p" transform="matrix(1,0,0,1,-1082.6666666666665,-183) translate(256.9753086419751 60.444444444444436)"/><use xlink:href="#s" transform="matrix(1,0,0,1,-1082.6666666666665,-183) translate(269.3209876543208 60.444444444444436)"/><use xlink:href="#n" transform="matrix(1,0,0,1,-1082.6666666666665,-183) translate(0 87.11111111111109)"/><use xlink:href="#t" transform="matrix(1,0,0,1,-1082.6666666666665,-183) translate(19.135802469135786 87.11111111111109)"/><use xlink:href="#p" transform="matrix(1,0,0,1,-1082.6666666666665,-183) translate(284.19753086419735 87.11111111111109)"/><use xlink:href="#u" transform="matrix(1,0,0,1,-1082.6666666666665,-183) translate(296.543209876543 87.11111111111109)"/><path d="M-1604.67 317.67a6 6 0 0 1 6-6h348a6 6 0 0 1 6 6v186a6 6 0 0 1-6 6h-348a6 6 0 0 1-6-6z" stroke="#3a414a" fill="#fff"/><path d="M-1604.67 354.33h360m-360 90.84h360" stroke="#3a414a" fill="none"/><use xlink:href="#v" transform="matrix(1,0,0,1,-1596.6666666666665,319.66671666666684) translate(100.51851851851853 17.944444444444443)"/><use xlink:href="#w" transform="matrix(1,0,0,1,-1592.6666666666665,362.33338333333353) translate(0 28.61111111111111)"/><use xlink:href="#x" transform="matrix(1,0,0,1,-1592.6666666666665,362.33338333333353) translate(13.518518518518515 28.61111111111111)"/><use xlink:href="#y" transform="matrix(1,0,0,1,-1592.6666666666665,362.33338333333353) translate(67.71604938271604 28.61111111111111)"/><use xlink:href="#z" transform="matrix(1,0,0,1,-1592.6666666666665,362.33338333333353) translate(80.06172839506172 28.61111111111111)"/><use xlink:href="#w" transform="matrix(1,0,0,1,-1592.6666666666665,362.33338333333353) translate(0 55.27777777777777)"/><use xlink:href="#A" transform="matrix(1,0,0,1,-1592.6666666666665,362.33338333333353) translate(13.518518518518515 55.27777777777777)"/><use xlink:href="#y" transform="matrix(1,0,0,1,-1592.6666666666665,362.33338333333353) translate(78.88888888888889 55.27777777777777)"/><use xlink:href="#B" transform="matrix(1,0,0,1,-1592.6666666666665,362.33338333333353) translate(91.23456790123456 55.27777777777777)"/><use xlink:href="#C" transform="matrix(1,0,0,1,-1592.6666666666665,453.16671666666684) translate(0 28.944444444444443)"/><use xlink:href="#D" transform="matrix(1,0,0,1,-1592.6666666666665,453.16671666666684) translate(19.135802469135797 28.944444444444443)"/><use xlink:href="#p" transform="matrix(1,0,0,1,-1592.6666666666665,453.16671666666684) translate(232.40740740740725 28.944444444444443)"/><use xlink:href="#E" transform="matrix(1,0,0,1,-1592.6666666666665,453.16671666666684) translate(244.75308641975292 28.944444444444443)"/><path d="M-1184.67 317.67a6 6 0 0 1 6-6h348a6 6 0 0 1 6 6v239a6 6 0 0 1-6 6h-348a6 6 0 0 1-6-6z" stroke="#3a414a" fill="#fff"/><path d="M-1184.67 354.33h360m-360 144.17h360" stroke="#3a414a" fill="none"/><use xlink:href="#F" transform="matrix(1,0,0,1,-1176.6666666666665,319.66671666666684) translate(124.56172839506173 17.944444444444443)"/><use xlink:href="#w" transform="matrix(1,0,0,1,-1172.6666666666665,362.33338333333353) translate(0 28.944444444444446)"/><use xlink:href="#x" transform="matrix(1,0,0,1,-1172.6666666666665,362.33338333333353) translate(13.518518518518515 28.944444444444446)"/><use xlink:href="#y" transform="matrix(1,0,0,1,-1172.6666666666665,362.33338333333353) translate(67.71604938271604 28.944444444444446)"/><use xlink:href="#z" transform="matrix(1,0,0,1,-1172.6666666666665,362.33338333333353) translate(80.06172839506172 28.944444444444446)"/><use xlink:href="#w" transform="matrix(1,0,0,1,-1172.6666666666665,362.33338333333353) translate(0 55.611111111111114)"/><use xlink:href="#G" transform="matrix(1,0,0,1,-1172.6666666666665,362.33338333333353) translate(13.518518518518515 55.611111111111114)"/><use xlink:href="#y" transform="matrix(1,0,0,1,-1172.6666666666665,362.33338333333353) translate(114.6296296296296 55.611111111111114)"/><use xlink:href="#H" transform="matrix(1,0,0,1,-1172.6666666666665,362.33338333333353) translate(126.97530864197529 55.611111111111114)"/><use xlink:href="#w" transform="matrix(1,0,0,1,-1172.6666666666665,362.33338333333353) translate(0 82.27777777777777)"/><use xlink:href="#I" transform="matrix(1,0,0,1,-1172.6666666666665,362.33338333333353) translate(13.518518518518515 82.27777777777777)"/><use xlink:href="#J" transform="matrix(1,0,0,1,-1172.6666666666665,362.33338333333353) translate(189.87654320987644 82.27777777777777)"/><use xlink:href="#w" transform="matrix(1,0,0,1,-1172.6666666666665,362.33338333333353) translate(0 108.94444444444444)"/><use xlink:href="#K" transform="matrix(1,0,0,1,-1172.6666666666665,362.33338333333353) translate(13.518518518518515 108.94444444444444)"/><use xlink:href="#B" transform="matrix(1,0,0,1,-1172.6666666666665,362.33338333333353) translate(85.06172839506172 108.94444444444444)"/><use xlink:href="#L" transform="matrix(1,0,0,1,-1172.6666666666665,506.5000500000002) translate(0 28.944444444444443)"/><use xlink:href="#M" transform="matrix(1,0,0,1,-1172.6666666666665,506.5000500000002) translate(19.135802469135793 28.944444444444443)"/><use xlink:href="#p" transform="matrix(1,0,0,1,-1172.6666666666665,506.5000500000002) translate(232.40740740740725 28.944444444444443)"/><use xlink:href="#E" transform="matrix(1,0,0,1,-1172.6666666666665,506.5000500000002) translate(244.75308641975292 28.944444444444443)"/><path d="M-764.67 317.67a6 6 0 0 1 6-6h348a6 6 0 0 1 6 6v159a6 6 0 0 1-6 6h-348a6 6 0 0 1-6-6z" stroke="#3a414a" fill="#fff"/><path d="M-764.67 354.33h360m-360 64.17h360" stroke="#3a414a" fill="none"/><use xlink:href="#N" transform="matrix(1,0,0,1,-756.6666666666665,319.66671666666684) translate(114.71604938271605 17.944444444444443)"/><path d="M-324.67 198.17a6 6 0 0 1 6-6h348a6 6 0 0 1 6 6v239a6 6 0 0 1-6 6h-348a6 6 0 0 1-6-6z" stroke="#3a414a" fill="#fff"/><path d="M-324.67 234.83h360m-360 144.17h360" stroke="#3a414a" fill="none"/><use xlink:href="#O" transform="matrix(1,0,0,1,-316.6666666666665,200.16666666666674) translate(138.14197530864197 17.944444444444443)"/><use xlink:href="#w" transform="matrix(1,0,0,1,-312.6666666666665,242.8333333333334) translate(0 28.944444444444446)"/><use xlink:href="#P" transform="matrix(1,0,0,1,-312.6666666666665,242.8333333333334) translate(13.518518518518515 28.944444444444446)"/><use xlink:href="#y" transform="matrix(1,0,0,1,-312.6666666666665,242.8333333333334) translate(98.64197530864196 28.944444444444446)"/><use xlink:href="#Q" transform="matrix(1,0,0,1,-312.6666666666665,242.8333333333334) translate(110.98765432098764 28.944444444444446)"/><use xlink:href="#w" transform="matrix(1,0,0,1,-312.6666666666665,242.8333333333334) translate(0 55.611111111111114)"/><use xlink:href="#R" transform="matrix(1,0,0,1,-312.6666666666665,242.8333333333334) translate(13.518518518518515 55.611111111111114)"/><use xlink:href="#y" transform="matrix(1,0,0,1,-312.6666666666665,242.8333333333334) translate(61.5432098765432 55.611111111111114)"/><use xlink:href="#S" transform="matrix(1,0,0,1,-312.6666666666665,242.8333333333334) translate(73.88888888888889 55.611111111111114)"/><use xlink:href="#w" transform="matrix(1,0,0,1,-312.6666666666665,242.8333333333334) translate(0 82.27777777777777)"/><use xlink:href="#T" transform="matrix(1,0,0,1,-312.6666666666665,242.8333333333334) translate(13.518518518518515 82.27777777777777)"/><use xlink:href="#y" transform="matrix(1,0,0,1,-312.6666666666665,242.8333333333334) translate(105.98765432098763 82.27777777777777)"/><use xlink:href="#z" transform="matrix(1,0,0,1,-312.6666666666665,242.8333333333334) translate(118.33333333333331 82.27777777777777)"/><use xlink:href="#w" transform="matrix(1,0,0,1,-312.6666666666665,242.8333333333334) translate(0 108.94444444444444)"/><use xlink:href="#U" transform="matrix(1,0,0,1,-312.6666666666665,242.8333333333334) translate(13.518518518518515 108.94444444444444)"/><use xlink:href="#y" transform="matrix(1,0,0,1,-312.6666666666665,242.8333333333334) translate(145.30864197530863 108.94444444444444)"/><use xlink:href="#V" transform="matrix(1,0,0,1,-312.6666666666665,242.8333333333334) translate(157.6543209876543 108.94444444444444)"/><path d="M-869.2 117.9l.08.88.2.84.33.8.47.74.56.66.66.57.73.44.8.33.84.2.88.07h273l1 .08 1 .24.92.4.87.52.77.66.67.77.53.88.4.94.23.98.08 1v180.77h-.94V129.93l-.07-.88-.2-.84-.35-.8-.45-.73-.56-.66-.66-.55-.74-.45-.8-.34-.84-.2-.88-.07h-273l-1-.1-1-.22-.93-.4-.87-.52-.78-.66-.66-.78-.54-.86-.4-.94-.22-1-.08-.98V-40.34h.95z" stroke="#3a414a" stroke-width=".05" fill="#3a414a"/><path d="M-584.2 311.17h-.94v-.52h.95z" fill="#3a414a"/><path stroke="#3a414a" stroke-width=".05" fill="#3a414a"/><path d="M-856.94-40.83h-25.45l12.73-21.52z" fill="#fff"/><path d="M-856.1-40.36h-27.13l13.56-22.92zm-25.46-.95h23.8l-11.9-20.12z" stroke="#3a414a" stroke-width=".05" fill="#3a414a"/><path d="M-1004.67 310.67V129.92a6 6 0 0 1 6-6h123a6 6 0 0 0 6-6V-40.33" stroke="#3a414a" fill="none"/><path d="M-1004.2 311.17h-.94v-.52h.95z" stroke="#3a414a" stroke-width=".05" fill="#3a414a"/><path d="M-869.67-62.35l12.73 21.52h-25.45z" stroke="#3a414a" fill="#fff"/><path d="M-1424.67 310.67V129.92a6 6 0 0 1 6-6h543a6 6 0 0 0 6-6V-40.33" stroke="#3a414a" fill="none"/><path d="M-1424.2 311.17h-.94v-.52h.95z" stroke="#3a414a" stroke-width=".05" fill="#3a414a"/><path d="M-869.67-62.35l12.73 21.52h-25.45zM-2104.67-361.83a6 6 0 0 1 6-6h548a6 6 0 0 1 6 6v208a6 6 0 0 1-6 6h-548a6 6 0 0 1-6-6z" stroke="#3a414a" fill="#fff"/><path d="M-2104.67-325.17h560m-560 101.84h560" stroke="#3a414a" fill="none"/><use xlink:href="#W" transform="matrix(1,0,0,1,-2096.6666666666665,-359.83333333333326) translate(201.75308641975312 17.944444444444443)"/><g><use xlink:href="#g" transform="matrix(1,0,0,1,-2092.6666666666665,-317.16666666666663) translate(0 34.111111111111114)"/><use xlink:href="#X" transform="matrix(1,0,0,1,-2092.6666666666665,-317.16666666666663) translate(13.518518518518508 34.111111111111114)"/><use xlink:href="#Y" transform="matrix(1,0,0,1,-2092.6666666666665,-317.16666666666663) translate(120.80246913580237 34.111111111111114)"/><use xlink:href="#w" transform="matrix(1,0,0,1,-2092.6666666666665,-317.16666666666663) translate(0 60.77777777777777)"/><use xlink:href="#K" transform="matrix(1,0,0,1,-2092.6666666666665,-317.16666666666663) translate(13.518518518518515 60.77777777777777)"/><use xlink:href="#B" transform="matrix(1,0,0,1,-2092.6666666666665,-317.16666666666663) translate(85.06172839506172 60.77777777777777)"/></g><g><use xlink:href="#n" transform="matrix(1,0,0,1,-2092.6666666666665,-215.33333333333331) translate(0 34.44444444444444)"/><use xlink:href="#Z" transform="matrix(1,0,0,1,-2092.6666666666665,-215.33333333333331) translate(19.135802469135786 34.44444444444444)"/><use xlink:href="#p" transform="matrix(1,0,0,1,-2092.6666666666665,-215.33333333333331) translate(170.67901234567887 34.44444444444444)"/><use xlink:href="#aa" transform="matrix(1,0,0,1,-2092.6666666666665,-215.33333333333331) translate(183.02469135802454 34.44444444444444)"/></g><path d="M-1584.67 1205.17a6 6 0 0 1 6-6h348a6 6 0 0 1 6 6v159a6 6 0 0 1-6 6h-348a6 6 0 0 1-6-6z" stroke="#3a414a" fill="#fff"/><path d="M-1584.67 1241.83h360m-360 64.17h360" stroke="#3a414a" fill="none"/><g><use xlink:href="#ab" transform="matrix(1,0,0,1,-1576.6666666666665,1207.1667166666668) translate(100.51851851851855 17.944444444444443)"/></g><g><use xlink:href="#w" transform="matrix(1,0,0,1,-1572.6666666666665,1249.8333833333336) translate(0 28.944444444444443)"/><use xlink:href="#ac" transform="matrix(1,0,0,1,-1572.6666666666665,1249.8333833333336) translate(13.518518518518515 28.944444444444443)"/><use xlink:href="#ad" transform="matrix(1,0,0,1,-1572.6666666666665,1249.8333833333336) translate(67.71604938271604 28.944444444444443)"/></g><path d="M-1124.67 1204.67a6 6 0 0 1 6-6h348a6 6 0 0 1 6 6v159a6 6 0 0 1-6 6h-348a6 6 0 0 1-6-6z" stroke="#3a414a" fill="#fff"/><path d="M-1124.67 1241.33h360m-360 64.17h360" stroke="#3a414a" fill="none"/><g><use xlink:href="#ae" transform="matrix(1,0,0,1,-1116.6666666666665,1206.6667166666668) translate(50.5802469135803 17.944444444444443)"/></g><path d="M-2464.67 1213.67a6 6 0 0 1 6-6h348a6 6 0 0 1 6 6v159a6 6 0 0 1-6 6h-348a6 6 0 0 1-6-6z" stroke="#3a414a" fill="#fff"/><path d="M-2464.67 1250.33h360m-360 64.17h360" stroke="#3a414a" fill="none"/><g><use xlink:href="#af" transform="matrix(1,0,0,1,-2456.6666666666665,1215.6667166666668) translate(77.09259259259264 17.944444444444443)"/></g><g><use xlink:href="#w" transform="matrix(1,0,0,1,-2452.6666666666665,1258.3333833333336) translate(0 28.944444444444443)"/><use xlink:href="#ag" transform="matrix(1,0,0,1,-2452.6666666666665,1258.3333833333336) translate(13.518518518518515 28.944444444444443)"/><use xlink:href="#y" transform="matrix(1,0,0,1,-2452.6666666666665,1258.3333833333336) translate(146.66666666666663 28.944444444444443)"/><use xlink:href="#ah" transform="matrix(1,0,0,1,-2452.6666666666665,1258.3333833333336) translate(159.0123456790123 28.944444444444443)"/></g><path d="M-2284.67 1206.67v-105a6 6 0 0 1 6-6h448a6 6 0 0 0 6-6v-71" stroke="#3a414a" fill="none"/><path d="M-2284.2 1207.17h-.94v-.52h.95z" stroke="#3a414a" stroke-width=".05" fill="#3a414a"/><path d="M-1824.67 996.65l12.73 21.52h-25.45z" stroke="#3a414a" fill="#fff"/><path d="M-1404.67 1198.17v-96.5a6 6 0 0 0-6-6h-408a6 6 0 0 1-6-6v-71" stroke="#3a414a" fill="none"/><path d="M-1404.2 1198.67h-.94v-.52h.95z" stroke="#3a414a" stroke-width=".05" fill="#3a414a"/><path d="M-1824.67 996.65l12.73 21.52h-25.45z" stroke="#3a414a" fill="#fff"/><path d="M-944.67 1197.67v-96a6 6 0 0 0-6-6h-868a6 6 0 0 1-6-6v-71" stroke="#3a414a" fill="none"/><path d="M-944.2 1198.17h-.94v-.52h.95z" stroke="#3a414a" stroke-width=".05" fill="#3a414a"/><path d="M-1824.67 996.65l12.73 21.52h-25.45zM-1944.67 798.17a6 6 0 0 1 6-6h228a6 6 0 0 1 6 6v191a6 6 0 0 1-6 6h-228a6 6 0 0 1-6-6z" stroke="#3a414a" fill="#fff"/><path d="M-1944.67 861.5h240m-240 66.67h240" stroke="#3a414a" fill="none"/><g><use xlink:href="#ai" transform="matrix(1,0,0,1,-1936.6666666666665,800.1666666666667) translate(46.59876543209877 18.11111111111111)"/><use xlink:href="#aj" transform="matrix(1,0,0,1,-1936.6666666666665,800.1666666666667) translate(62.09259259259261 44.77777777777777)"/></g><path d="M-2004.67 1204.67a6 6 0 0 1 6-6h348a6 6 0 0 1 6 6v159a6 6 0 0 1-6 6h-348a6 6 0 0 1-6-6z" stroke="#3a414a" fill="#fff"/><path d="M-2004.67 1241.33h360m-360 64.17h360" stroke="#3a414a" fill="none"/><g><use xlink:href="#ak" transform="matrix(1,0,0,1,-1996.6666666666665,1206.6667166666668) translate(74.6234567901235 17.944444444444443)"/></g><g><use xlink:href="#w" transform="matrix(1,0,0,1,-1992.6666666666665,1249.3333833333336) translate(0 28.944444444444443)"/><use xlink:href="#al" transform="matrix(1,0,0,1,-1992.6666666666665,1249.3333833333336) translate(13.518518518518515 28.944444444444443)"/><use xlink:href="#am" transform="matrix(1,0,0,1,-1992.6666666666665,1249.3333833333336) translate(112.16049382716047 28.944444444444443)"/></g><path d="M-1324.67-881.83a6 6 0 0 1 6-6h178a6 6 0 0 1 6 6v186a6 6 0 0 1-6 6h-178a6 6 0 0 1-6-6z" stroke="#3a414a" fill="#fff"/><path d="M-1324.67-818.5h190m-190 64.17h190" stroke="#3a414a" fill="none"/><g><use xlink:href="#ai" transform="matrix(1,0,0,1,-1316.6666666666665,-879.8333333333333) translate(21.598765432098773 18.11111111111111)"/><use xlink:href="#an" transform="matrix(1,0,0,1,-1316.6666666666665,-879.8333333333333) translate(62.98765432098766 44.77777777777777)"/></g><g><use xlink:href="#w" transform="matrix(1,0,0,1,-1312.6666666666665,-810.4999999999999) translate(0 28.944444444444443)"/><use xlink:href="#ao" transform="matrix(1,0,0,1,-1312.6666666666665,-810.4999999999999) translate(13.518518518518515 28.944444444444443)"/><use xlink:href="#y" transform="matrix(1,0,0,1,-1312.6666666666665,-810.4999999999999) translate(36.913580246913575 28.944444444444443)"/><use xlink:href="#B" transform="matrix(1,0,0,1,-1312.6666666666665,-810.4999999999999) translate(49.25925925925925 28.944444444444443)"/></g><path d="M-869.67-388.83v-144a6 6 0 0 0-6-6h-348a6 6 0 0 1-6-6v-121.5" stroke="#3a414a" fill="none"/><path d="M-869.2-388.33h-.94v-.52h.95z" stroke="#3a414a" stroke-width=".05" fill="#3a414a"/><path d="M-1229.67-688.35l12.73 21.52h-25.45z" stroke="#3a414a" fill="#fff"/><path d="M-1824.67-368.83v-164a6 6 0 0 1 6-6h583a6 6 0 0 0 6-6v-121.5" stroke="#3a414a" fill="none"/><path d="M-1824.2-368.33h-.94v-.52h.95z" stroke="#3a414a" stroke-width=".05" fill="#3a414a"/><path d="M-1229.67-688.35l12.73 21.52h-25.45z" stroke="#3a414a" fill="#fff"/><path d="M-1824.67 1197.67v-179" stroke="#3a414a" fill="none"/><path d="M-1824.2 1198.17h-.94v-.52h.95z" stroke="#3a414a" stroke-width=".05" fill="#3a414a"/><path d="M-1824.67 996.65l12.73 21.52h-25.45z" stroke="#3a414a" fill="#fff"/><path d="M-1824.2 791.17h-.94v-16.2h.95zm0-37.53h-.94v-842h.95zm0-863.32h-.94v-37.15h.95z" stroke="#3a414a" stroke-width=".05" fill="#3a414a"/><path d="M-1824.2 791.67h-.94v-.52h.95z" fill="#3a414a"/><path stroke="#3a414a" stroke-width=".05" fill="#3a414a"/><path d="M-1824.2-146.82h-.94v-.5h.95z" fill="#3a414a"/><path stroke="#3a414a" stroke-width=".05" fill="#3a414a"/><g><use xlink:href="#ap" transform="matrix(1,0,0,1,-1829.6049382716049,-109.68010883075446) translate(0 14.222222222222223)"/></g><g><use xlink:href="#aq" transform="matrix(1,0,0,1,-1839.4814814814813,753.635691998227) translate(0 14.222222222222223)"/></g><path d="M-1644.94 894.14h-58.73v-.95h58.73zm640.75-6.46l-.07 1-.24 1-.4.93-.53.87-.66.78-.76.66-.87.54-.93.4-1 .22-1 .08h-594.77v-.95h594.75l.88-.08.84-.2.8-.33.74-.47.66-.56.56-.66.46-.73.33-.8.2-.84.06-.88V622h.95zm0-287.02h-.94v-37h.95z" stroke="#3a414a" stroke-width=".05" fill="#3a414a"/><path d="M-1703.65 894.14h-.52v-.95h.52z" fill="#3a414a"/><path stroke="#3a414a" stroke-width=".05" fill="#3a414a"/><path d="M-1004.2 563.68h-.94v-.5h.95z" fill="#3a414a"/><path stroke="#3a414a" stroke-width=".05" fill="#3a414a"/><g><use xlink:href="#aq" transform="matrix(1,0,0,1,-1019.4814814814813,600.6557953469594) translate(0 14.222222222222223)"/></g><g><use xlink:href="#ar" transform="matrix(1,0,0,1,-1644.9357039705628,883.0000000000001) translate(0 14.222222222222223)"/></g><path d="M-144.2 191.17h-.94v-18.7h.95zM-682.74 36.15l.07.88.2.84.34.8.45.74.57.67.66.56.74.46.8.32.84.2.9.07h526.55l1 .07 1 .24.92.4.87.53.77.66.67.76.53.87.4.94.23.98.08 1v102.98h-.94V48.2l-.07-.9-.2-.84-.34-.8-.46-.74-.56-.66-.66-.56-.74-.46-.8-.33-.84-.2-.88-.06h-526.56l-1-.08-.98-.23-.94-.4-.87-.52-.77-.65-.66-.78-.53-.86-.38-.93-.24-1-.08-.98V16.04h.95zm0-41.43h-.95v-27.68h.95z" stroke="#3a414a" stroke-width=".05" fill="#3a414a"/><path d="M-144.2 191.67h-.94v-.52h.95z" fill="#3a414a"/><path stroke="#3a414a" stroke-width=".05" fill="#3a414a"/><path d="M-668.37-47.78l-14.85 15.15-14.85-15.15 14.85-14.85z" fill="#3a414a"/><path d="M-667.7-47.78l-15.52 15.83-15.52-15.83 15.52-15.52zm-29.7 0l14.18 14.48 14.18-14.47-14.18-14.18z" stroke="#3a414a" stroke-width=".05" fill="#3a414a"/><g><use xlink:href="#as" transform="matrix(1,0,0,1,-698.0365638126052,-5.283732450517089) translate(0 14.222222222222223)"/></g><g><use xlink:href="#ap" transform="matrix(1,0,0,1,-149.6049382716048,151.13083322110754) translate(0 14.222222222222223)"/></g><defs><path d="M125-24c46 0 70-25 89-51l25 16C214-24 183 4 123 4 8 4-5-146 60-208c32-50 158-61 191-5 5 7 9 14 11 22l-32 10c-9-28-33-43-69-43-74 0-108 51-108 125 0 46 24 75 72 75" id="at"/><path d="M30-147c31-64 166-65 159 27C183-49 158 1 86 4 9 8 1-88 30-147zM88-20c53 0 68-48 68-100 0-31-11-51-44-50-52 1-68 46-68 97 0 32 13 53 44 53" id="au"/><path d="M66-151c12-25 30-51 66-40l-6 26C45-176 58-65 38 0H6l36-190h30" id="av"/><path d="M67-158c22-48 132-52 116 29L158 0h-32l25-140c3-38-53-32-70-12C52-117 51-52 38 0H6l36-190h30" id="aw"/><path d="M111-194c62-3 86 47 72 106H45c-7 38 6 69 45 68 27-1 43-14 53-32l24 11C152-15 129 4 87 4 38 3 12-23 12-71c0-70 32-119 99-123zm44 81c14-66-71-72-95-28-4 8-8 17-11 28h106" id="ax"/><path d="M165-48c-4 18 1 34 23 27l-3 20c-29 8-62 0-52-35h-2C116-14 99 4 63 4 30 4 8-16 8-49c0-68 71-67 138-67 10-26 0-56-31-54-26 1-42 9-47 31l-32-5c8-67 160-71 144 15-5 28-9 54-15 81zM42-50c3 52 80 24 89-6 7-12 7-24 11-38-47 1-103-4-100 44" id="ay"/><path d="M133-28C103 26-5 8 13-77c13-62 24-115 90-117 29-1 46 15 56 35l19-102h32L160 0h-30zM45-64c-2 27 10 43 35 43 54-1 69-50 69-103 0-29-15-46-42-46-53-1-58 58-62 106" id="az"/><g id="a"><use transform="matrix(0.06172839506172835,0,0,0.06172839506172835,0,0)" xlink:href="#at"/><use transform="matrix(0.06172839506172835,0,0,0.06172839506172835,15.987654320987643,0)" xlink:href="#au"/><use transform="matrix(0.06172839506172835,0,0,0.06172839506172835,28.333333333333314,0)" xlink:href="#av"/><use transform="matrix(0.06172839506172835,0,0,0.06172839506172835,35.679012345678984,0)" xlink:href="#aw"/><use transform="matrix(0.06172839506172835,0,0,0.06172839506172835,48.024691358024654,0)" xlink:href="#ax"/><use transform="matrix(0.06172839506172835,0,0,0.06172839506172835,60.370370370370324,0)" xlink:href="#av"/><use transform="matrix(0.06172839506172835,0,0,0.06172839506172835,67.716049382716,0)" xlink:href="#at"/><use transform="matrix(0.06172839506172835,0,0,0.06172839506172835,83.70370370370364,0)" xlink:href="#ay"/><use transform="matrix(0.06172839506172835,0,0,0.06172839506172835,96.04938271604931,0)" xlink:href="#av"/><use transform="matrix(0.06172839506172835,0,0,0.06172839506172835,103.39506172839498,0)" xlink:href="#az"/></g><path d="M23-100v-36l175-74v27L47-118l151 64v27" id="aA"/><path d="M68-162c25-46 127-43 121 31C183-60 169 1 98 4 69 5 53-11 43-31L36 0H5l52-261h31zm88 36c2-27-9-43-34-43-55 0-70 51-70 103 0 29 15 45 43 46 52 0 58-58 61-106" id="aB"/><path d="M55-144c13 50 104 24 104 88C159 21 15 23 1-39l26-10c6 40 102 42 102-4-13-50-104-23-104-87 0-71 143-71 148-8l-29 4c-5-35-85-37-89 0" id="aC"/><path d="M51-54c-9 22 5 41 31 30L79-1C43 14 10-4 19-52l22-115H19l5-23h22l19-43h21l-9 43h35l-4 23H73" id="aD"/><path d="M44-68c0 29 11 47 38 47 30 0 42-19 51-41l28 9C148-21 126 4 82 4 31 4 10-29 12-85c3-77 74-140 146-93 12 8 15 23 18 40l-31 5c-1-22-13-36-36-36-52 0-65 49-65 101" id="aE"/><path d="M23-27v-27l151-64-151-65v-27l175 74v36" id="aF"/><g id="b"><use transform="matrix(0.06172839506172835,0,0,0.06172839506172835,0,0)" xlink:href="#aA"/><use transform="matrix(0.06172839506172835,0,0,0.06172839506172835,12.962962962962953,0)" xlink:href="#aA"/><use transform="matrix(0.06172839506172835,0,0,0.06172839506172835,25.925925925925906,0)" xlink:href="#ay"/><use transform="matrix(0.06172839506172835,0,0,0.06172839506172835,38.27160493827158,0)" xlink:href="#aB"/><use transform="matrix(0.06172839506172835,0,0,0.06172839506172835,50.61728395061725,0)" xlink:href="#aC"/><use transform="matrix(0.06172839506172835,0,0,0.06172839506172835,61.72839506172835,0)" xlink:href="#aD"/><use transform="matrix(0.06172839506172835,0,0,0.06172839506172835,67.90123456790118,0)" xlink:href="#av"/><use transform="matrix(0.06172839506172835,0,0,0.06172839506172835,75.24691358024685,0)" xlink:href="#ay"/><use transform="matrix(0.06172839506172835,0,0,0.06172839506172835,87.59259259259252,0)" xlink:href="#aE"/><use transform="matrix(0.06172839506172835,0,0,0.06172839506172835,98.70370370370362,0)" xlink:href="#aD"/><use transform="matrix(0.06172839506172835,0,0,0.06172839506172835,104.87654320987646,0)" xlink:href="#aF"/><use transform="matrix(0.06172839506172835,0,0,0.06172839506172835,117.8395061728394,0)" xlink:href="#aF"/></g><path d="M16-82v-28h88v28H16" id="aG"/><use transform="matrix(0.06172839506172835,0,0,0.06172839506172835,0,0)" xlink:href="#aG" id="c"/><path d="M101-234c-31-9-42 10-38 44h38v23H63V0H32v-167H5v-23h27c-7-52 17-82 69-68v24" id="aH"/><path d="M114-163C36-179 61-72 57 0H25l-1-190h30c1 12-1 29 2 39 6-27 23-49 58-41v29" id="aI"/><path d="M100-194c62-1 85 37 85 99 1 63-27 99-86 99S16-35 15-95c0-66 28-99 85-99zM99-20c44 1 53-31 53-75 0-43-8-75-51-75s-53 32-53 75 10 74 51 75" id="aJ"/><path d="M117-194c89-4 53 116 60 194h-32v-121c0-31-8-49-39-48C34-167 62-67 57 0H25l-1-190h30c1 10-1 24 2 32 11-22 29-35 61-36" id="aK"/><path d="M59-47c-2 24 18 29 38 22v24C64 9 27 4 27-40v-127H5v-23h24l9-43h21v43h35v23H59v120" id="aL"/><path d="M212-179c-10-28-35-45-73-45-59 0-87 40-87 99 0 60 29 101 89 101 43 0 62-24 78-52l27 14C228-24 195 4 139 4 59 4 22-46 18-125c-6-104 99-153 187-111 19 9 31 26 39 46" id="aM"/><path d="M100-194c63 0 86 42 84 106H49c0 40 14 67 53 68 26 1 43-12 49-29l28 8c-11 28-37 45-77 45C44 4 14-33 15-96c1-61 26-98 85-98zm52 81c6-60-76-77-97-28-3 7-6 17-6 28h103" id="aN"/><path d="M135-143c-3-34-86-38-87 0 15 53 115 12 119 90S17 21 10-45l28-5c4 36 97 45 98 0-10-56-113-15-118-90-4-57 82-63 122-42 12 7 21 19 24 35" id="aO"/><path d="M26 75v-336h71v23H56V52h41v23H26" id="aP"/><path d="M155-56V0h-30v-56H8v-25l114-167h33v167h35v25h-35zm-30-156c-27 46-58 90-88 131h88v-131" id="aQ"/><path d="M3 75V52h41v-290H3v-23h71V75H3" id="aR"/><g id="d"><use transform="matrix(0.06172839506172835,0,0,0.06172839506172835,0,0)" xlink:href="#aH"/><use transform="matrix(0.06172839506172835,0,0,0.06172839506172835,6.172839506172835,0)" xlink:href="#aI"/><use transform="matrix(0.06172839506172835,0,0,0.06172839506172835,13.518518518518508,0)" xlink:href="#aJ"/><use transform="matrix(0.06172839506172835,0,0,0.06172839506172835,25.86419753086418,0)" xlink:href="#aK"/><use transform="matrix(0.06172839506172835,0,0,0.06172839506172835,38.209876543209845,0)" xlink:href="#aL"/><use transform="matrix(0.06172839506172835,0,0,0.06172839506172835,44.38271604938268,0)" xlink:href="#aM"/><use transform="matrix(0.06172839506172835,0,0,0.06172839506172835,60.370370370370324,0)" xlink:href="#aJ"/><use transform="matrix(0.06172839506172835,0,0,0.06172839506172835,72.716049382716,0)" xlink:href="#aI"/><use transform="matrix(0.06172839506172835,0,0,0.06172839506172835,80.06172839506166,0)" xlink:href="#aK"/><use transform="matrix(0.06172839506172835,0,0,0.06172839506172835,92.40740740740733,0)" xlink:href="#aN"/><use transform="matrix(0.06172839506172835,0,0,0.06172839506172835,104.753086419753,0)" xlink:href="#aI"/><use transform="matrix(0.06172839506172835,0,0,0.06172839506172835,112.09876543209867,0)" xlink:href="#aO"/><use transform="matrix(0.06172839506172835,0,0,0.06172839506172835,123.20987654320977,0)" xlink:href="#aP"/><use transform="matrix(0.06172839506172835,0,0,0.06172839506172835,129.38271604938262,0)" xlink:href="#aQ"/><use transform="matrix(0.06172839506172835,0,0,0.06172839506172835,141.7283950617283,0)" xlink:href="#aR"/></g><path d="M33-154v-36h34v36H33zM33 0v-36h34V0H33" id="aS"/><use transform="matrix(0.06172839506172835,0,0,0.06172839506172835,0,0)" xlink:href="#aS" id="e"/><g id="f"><use transform="matrix(0.06172839506172835,0,0,0.06172839506172835,0,0)" xlink:href="#aM"/><use transform="matrix(0.06172839506172835,0,0,0.06172839506172835,15.987654320987643,0)" xlink:href="#aJ"/><use transform="matrix(0.06172839506172835,0,0,0.06172839506172835,28.333333333333314,0)" xlink:href="#aI"/><use transform="matrix(0.06172839506172835,0,0,0.06172839506172835,35.679012345678984,0)" xlink:href="#aK"/><use transform="matrix(0.06172839506172835,0,0,0.06172839506172835,48.024691358024654,0)" xlink:href="#aN"/><use transform="matrix(0.06172839506172835,0,0,0.06172839506172835,60.370370370370324,0)" xlink:href="#aI"/><use transform="matrix(0.06172839506172835,0,0,0.06172839506172835,67.716049382716,0)" xlink:href="#aP"/><use transform="matrix(0.06172839506172835,0,0,0.06172839506172835,73.88888888888883,0)" xlink:href="#aR"/></g><use transform="matrix(0.06172839506172835,0,0,0.06172839506172835,0,0)" xlink:href="#aG" id="g"/><path d="M115-194c53 0 69 39 70 98 0 66-23 100-70 100C84 3 66-7 56-30L54 0H23l1-261h32v101c10-23 28-34 59-34zm-8 174c40 0 45-34 45-75 0-40-5-75-45-74-42 0-51 32-51 76 0 43 10 73 51 73" id="aT"/><path d="M141-36C126-15 110 5 73 4 37 3 15-17 15-53c-1-64 63-63 125-63 3-35-9-54-41-54-24 1-41 7-42 31l-33-3c5-37 33-52 76-52 45 0 72 20 72 64v82c-1 20 7 32 28 27v20c-31 9-61-2-59-35zM48-53c0 20 12 33 32 33 41-3 63-29 60-74-43 2-92-5-92 41" id="aU"/><path d="M96-169c-40 0-48 33-48 73s9 75 48 75c24 0 41-14 43-38l32 2c-6 37-31 61-74 61-59 0-76-41-82-99-10-93 101-131 147-64 4 7 5 14 7 22l-32 3c-4-21-16-35-41-35" id="aV"/><path d="M143 0L79-87 56-68V0H24v-261h32v163l83-92h37l-77 82L181 0h-38" id="aW"/><g id="h"><use transform="matrix(0.06172839506172835,0,0,0.06172839506172835,0,0)" xlink:href="#aT"/><use transform="matrix(0.06172839506172835,0,0,0.06172839506172835,12.34567901234567,0)" xlink:href="#aU"/><use transform="matrix(0.06172839506172835,0,0,0.06172839506172835,24.69135802469134,0)" xlink:href="#aV"/><use transform="matrix(0.06172839506172835,0,0,0.06172839506172835,35.80246913580244,0)" xlink:href="#aW"/><use transform="matrix(0.06172839506172835,0,0,0.06172839506172835,46.91358024691354,0)" xlink:href="#aM"/><use transform="matrix(0.06172839506172835,0,0,0.06172839506172835,62.901234567901184,0)" xlink:href="#aJ"/><use transform="matrix(0.06172839506172835,0,0,0.06172839506172835,75.24691358024685,0)" xlink:href="#aI"/><use transform="matrix(0.06172839506172835,0,0,0.06172839506172835,82.59259259259252,0)" xlink:href="#aK"/><use transform="matrix(0.06172839506172835,0,0,0.06172839506172835,94.9382716049382,0)" xlink:href="#aN"/><use transform="matrix(0.06172839506172835,0,0,0.06172839506172835,107.28395061728386,0)" xlink:href="#aI"/><use transform="matrix(0.06172839506172835,0,0,0.06172839506172835,114.62962962962953,0)" xlink:href="#aO"/></g><g id="i"><use transform="matrix(0.06172839506172835,0,0,0.06172839506172835,0,0)" xlink:href="#aP"/><use transform="matrix(0.06172839506172835,0,0,0.06172839506172835,6.172839506172835,0)" xlink:href="#aQ"/><use transform="matrix(0.06172839506172835,0,0,0.06172839506172835,18.518518518518505,0)" xlink:href="#aR"/><use transform="matrix(0.06172839506172835,0,0,0.06172839506172835,24.69135802469134,0)" xlink:href="#aS"/></g><g id="j"><use transform="matrix(0.06172839506172835,0,0,0.06172839506172835,0,0)" xlink:href="#aM"/><use transform="matrix(0.06172839506172835,0,0,0.06172839506172835,15.987654320987643,0)" xlink:href="#aJ"/><use transform="matrix(0.06172839506172835,0,0,0.06172839506172835,28.333333333333314,0)" xlink:href="#aI"/><use transform="matrix(0.06172839506172835,0,0,0.06172839506172835,35.679012345678984,0)" xlink:href="#aK"/><use transform="matrix(0.06172839506172835,0,0,0.06172839506172835,48.024691358024654,0)" xlink:href="#aN"/><use transform="matrix(0.06172839506172835,0,0,0.06172839506172835,60.370370370370324,0)" xlink:href="#aI"/><use transform="matrix(0.06172839506172835,0,0,0.06172839506172835,67.716049382716,0)" xlink:href="#aP"/><use transform="matrix(0.06172839506172835,0,0,0.06172839506172835,73.88888888888883,0)" xlink:href="#aR"/></g><path d="M160-131c35 5 61 23 61 61C221 17 115-2 30 0v-248c76 3 177-17 177 60 0 33-19 50-47 57zm-97-11c50-1 110 9 110-42 0-47-63-36-110-37v79zm0 115c55-2 124 14 124-45 0-56-70-42-124-44v89" id="aX"/><path d="M233-177c-1 41-23 64-60 70L243 0h-38l-65-103H63V0H30v-248c88 3 205-21 203 71zM63-129c60-2 137 13 137-47 0-61-80-42-137-45v92" id="aY"/><path d="M84 4C-5 8 30-112 23-190h32v120c0 31 7 50 39 49 72-2 45-101 50-169h31l1 190h-30c-1-10 1-25-2-33-11 22-28 36-60 37" id="aZ"/><path d="M126-127c33 6 58 20 58 59 0 88-139 92-164 29-3-8-5-16-6-25l32-3c6 27 21 44 54 44 32 0 52-15 52-46 0-38-36-46-79-43v-28c39 1 72-4 72-42 0-27-17-43-46-43-28 0-47 15-49 41l-32-3c6-42 35-63 81-64 48-1 79 21 79 65 0 36-21 52-52 59" id="ba"/><g id="k"><use transform="matrix(0.06172839506172835,0,0,0.06172839506172835,0,0)" xlink:href="#aV"/><use transform="matrix(0.06172839506172835,0,0,0.06172839506172835,11.111111111111104,0)" xlink:href="#aN"/><use transform="matrix(0.06172839506172835,0,0,0.06172839506172835,23.456790123456774,0)" xlink:href="#aK"/><use transform="matrix(0.06172839506172835,0,0,0.06172839506172835,35.80246913580244,0)" xlink:href="#aL"/><use transform="matrix(0.06172839506172835,0,0,0.06172839506172835,41.975308641975275,0)" xlink:href="#aN"/><use transform="matrix(0.06172839506172835,0,0,0.06172839506172835,54.320987654320945,0)" xlink:href="#aI"/><use transform="matrix(0.06172839506172835,0,0,0.06172839506172835,61.666666666666615,0)" xlink:href="#aX"/><use transform="matrix(0.06172839506172835,0,0,0.06172839506172835,76.48148148148142,0)" xlink:href="#aU"/><use transform="matrix(0.06172839506172835,0,0,0.06172839506172835,88.8271604938271,0)" xlink:href="#aV"/><use transform="matrix(0.06172839506172835,0,0,0.06172839506172835,99.9382716049382,0)" xlink:href="#aW"/><use transform="matrix(0.06172839506172835,0,0,0.06172839506172835,111.0493827160493,0)" xlink:href="#aY"/><use transform="matrix(0.06172839506172835,0,0,0.06172839506172835,127.03703703703694,0)" xlink:href="#aN"/><use transform="matrix(0.06172839506172835,0,0,0.06172839506172835,139.38271604938262,0)" xlink:href="#aO"/><use transform="matrix(0.06172839506172835,0,0,0.06172839506172835,150.49382716049374,0)" xlink:href="#aJ"/><use transform="matrix(0.06172839506172835,0,0,0.06172839506172835,162.8395061728394,0)" xlink:href="#aZ"/><use transform="matrix(0.06172839506172835,0,0,0.06172839506172835,175.18518518518508,0)" xlink:href="#aI"/><use transform="matrix(0.06172839506172835,0,0,0.06172839506172835,182.53086419753075,0)" xlink:href="#aV"/><use transform="matrix(0.06172839506172835,0,0,0.06172839506172835,193.64197530864186,0)" xlink:href="#aN"/><use transform="matrix(0.06172839506172835,0,0,0.06172839506172835,205.98765432098753,0)" xlink:href="#aP"/><use transform="matrix(0.06172839506172835,0,0,0.06172839506172835,212.16049382716037,0)" xlink:href="#ba"/><use transform="matrix(0.06172839506172835,0,0,0.06172839506172835,224.50617283950604,0)" xlink:href="#aR"/></g><use transform="matrix(0.06172839506172835,0,0,0.06172839506172835,0,0)" xlink:href="#aS" id="l"/><g id="m"><use transform="matrix(0.06172839506172835,0,0,0.06172839506172835,0,0)" xlink:href="#aY"/><use transform="matrix(0.06172839506172835,0,0,0.06172839506172835,15.987654320987643,0)" xlink:href="#aN"/><use transform="matrix(0.06172839506172835,0,0,0.06172839506172835,28.333333333333314,0)" xlink:href="#aO"/><use transform="matrix(0.06172839506172835,0,0,0.06172839506172835,39.444444444444414,0)" xlink:href="#aJ"/><use transform="matrix(0.06172839506172835,0,0,0.06172839506172835,51.790123456790084,0)" xlink:href="#aZ"/><use transform="matrix(0.06172839506172835,0,0,0.06172839506172835,64.13580246913575,0)" xlink:href="#aI"/><use transform="matrix(0.06172839506172835,0,0,0.06172839506172835,71.48148148148142,0)" xlink:href="#aV"/><use transform="matrix(0.06172839506172835,0,0,0.06172839506172835,82.59259259259252,0)" xlink:href="#aN"/><use transform="matrix(0.06172839506172835,0,0,0.06172839506172835,94.9382716049382,0)" xlink:href="#aP"/><use transform="matrix(0.06172839506172835,0,0,0.06172839506172835,101.11111111111103,0)" xlink:href="#aR"/></g><path d="M118-107v75H92v-75H18v-26h74v-75h26v75h74v26h-74" id="bb"/><use transform="matrix(0.06172839506172834,0,0,0.06172839506172834,0,0)" xlink:href="#bb" id="n"/><path d="M177-190C167-65 218 103 67 71c-23-6-38-20-44-43l32-5c15 47 100 32 89-28v-30C133-14 115 1 83 1 29 1 15-40 15-95c0-56 16-97 71-98 29-1 48 16 59 35 1-10 0-23 2-32h30zM94-22c36 0 50-32 50-73 0-42-14-75-50-75-39 0-46 34-46 75s6 73 46 73" id="bc"/><path d="M30 0v-248h33v221h125V0H30" id="bd"/><path d="M24-231v-30h32v30H24zM24 0v-190h32V0H24" id="be"/><path d="M85-194c31 0 48 13 60 33l-1-100h32l1 261h-30c-2-10 0-23-3-31C134-8 116 4 85 4 32 4 16-35 15-94c0-66 23-100 70-100zm9 24c-40 0-46 34-46 75 0 40 6 74 45 74 42 0 51-32 51-76 0-42-9-74-50-73" id="bf"/><path d="M87 75C49 33 22-17 22-94c0-76 28-126 65-167h31c-38 41-64 92-64 168S80 34 118 75H87" id="bg"/><path d="M33-261c38 41 65 92 65 168S71 34 33 75H2C39 34 66-17 66-93S39-220 2-261h31" id="bh"/><g id="o"><use transform="matrix(0.06172839506172834,0,0,0.06172839506172834,0,0)" xlink:href="#bc"/><use transform="matrix(0.06172839506172834,0,0,0.06172839506172834,12.345679012345668,0)" xlink:href="#aN"/><use transform="matrix(0.06172839506172834,0,0,0.06172839506172834,24.691358024691336,0)" xlink:href="#aL"/><use transform="matrix(0.06172839506172834,0,0,0.06172839506172834,30.86419753086417,0)" xlink:href="#bd"/><use transform="matrix(0.06172839506172834,0,0,0.06172839506172834,43.20987654320984,0)" xlink:href="#be"/><use transform="matrix(0.06172839506172834,0,0,0.06172839506172834,48.086419753086375,0)" xlink:href="#aK"/><use transform="matrix(0.06172839506172834,0,0,0.06172839506172834,60.432098765432045,0)" xlink:href="#aW"/><use transform="matrix(0.06172839506172834,0,0,0.06172839506172834,71.54320987654314,0)" xlink:href="#aN"/><use transform="matrix(0.06172839506172834,0,0,0.06172839506172834,83.88888888888881,0)" xlink:href="#bf"/><use transform="matrix(0.06172839506172834,0,0,0.06172839506172834,96.23456790123448,0)" xlink:href="#aM"/><use transform="matrix(0.06172839506172834,0,0,0.06172839506172834,112.22222222222213,0)" xlink:href="#aU"/><use transform="matrix(0.06172839506172834,0,0,0.06172839506172834,124.5679012345678,0)" xlink:href="#aI"/><use transform="matrix(0.06172839506172834,0,0,0.06172839506172834,131.91358024691348,0)" xlink:href="#bf"/><use transform="matrix(0.06172839506172834,0,0,0.06172839506172834,144.25925925925915,0)" xlink:href="#aO"/><use transform="matrix(0.06172839506172834,0,0,0.06172839506172834,155.37037037037027,0)" xlink:href="#bg"/><use transform="matrix(0.06172839506172834,0,0,0.06172839506172834,162.71604938271594,0)" xlink:href="#bh"/></g><use transform="matrix(0.06172839506172834,0,0,0.06172839506172834,0,0)" xlink:href="#aS" id="p"/><g id="q"><use transform="matrix(0.06172839506172834,0,0,0.06172839506172834,0,0)" xlink:href="#aM"/><use transform="matrix(0.06172839506172834,0,0,0.06172839506172834,15.987654320987641,0)" xlink:href="#aJ"/><use transform="matrix(0.06172839506172834,0,0,0.06172839506172834,28.333333333333307,0)" xlink:href="#aI"/><use transform="matrix(0.06172839506172834,0,0,0.06172839506172834,35.67901234567898,0)" xlink:href="#aK"/><use transform="matrix(0.06172839506172834,0,0,0.06172839506172834,48.02469135802465,0)" xlink:href="#aN"/><use transform="matrix(0.06172839506172834,0,0,0.06172839506172834,60.37037037037032,0)" xlink:href="#aI"/><use transform="matrix(0.06172839506172834,0,0,0.06172839506172834,67.716049382716,0)" xlink:href="#aM"/><use transform="matrix(0.06172839506172834,0,0,0.06172839506172834,83.70370370370364,0)" xlink:href="#aU"/><use transform="matrix(0.06172839506172834,0,0,0.06172839506172834,96.04938271604931,0)" xlink:href="#aI"/><use transform="matrix(0.06172839506172834,0,0,0.06172839506172834,103.39506172839498,0)" xlink:href="#bf"/><use transform="matrix(0.06172839506172834,0,0,0.06172839506172834,115.74074074074065,0)" xlink:href="#aP"/><use transform="matrix(0.06172839506172834,0,0,0.06172839506172834,121.91358024691348,0)" xlink:href="#aQ"/><use transform="matrix(0.06172839506172834,0,0,0.06172839506172834,134.25925925925915,0)" xlink:href="#aR"/></g><path d="M232-93c-1 65-40 97-104 97C67 4 28-28 28-90v-158h33c8 89-33 224 67 224 102 0 64-133 71-224h33v155" id="bi"/><path d="M108 0H70L1-190h34L89-25l56-165h34" id="bj"/><g id="r"><use transform="matrix(0.06172839506172834,0,0,0.06172839506172834,0,0)" xlink:href="#bc"/><use transform="matrix(0.06172839506172834,0,0,0.06172839506172834,12.345679012345668,0)" xlink:href="#aN"/><use transform="matrix(0.06172839506172834,0,0,0.06172839506172834,24.691358024691336,0)" xlink:href="#aL"/><use transform="matrix(0.06172839506172834,0,0,0.06172839506172834,30.86419753086417,0)" xlink:href="#bi"/><use transform="matrix(0.06172839506172834,0,0,0.06172839506172834,46.85185185185181,0)" xlink:href="#aK"/><use transform="matrix(0.06172839506172834,0,0,0.06172839506172834,59.19753086419748,0)" xlink:href="#aV"/><use transform="matrix(0.06172839506172834,0,0,0.06172839506172834,70.30864197530859,0)" xlink:href="#aJ"/><use transform="matrix(0.06172839506172834,0,0,0.06172839506172834,82.65432098765426,0)" xlink:href="#bj"/><use transform="matrix(0.06172839506172834,0,0,0.06172839506172834,93.76543209876536,0)" xlink:href="#aN"/><use transform="matrix(0.06172839506172834,0,0,0.06172839506172834,106.11111111111103,0)" xlink:href="#aI"/><use transform="matrix(0.06172839506172834,0,0,0.06172839506172834,113.4567901234567,0)" xlink:href="#aN"/><use transform="matrix(0.06172839506172834,0,0,0.06172839506172834,125.80246913580237,0)" xlink:href="#bf"/><use transform="matrix(0.06172839506172834,0,0,0.06172839506172834,138.14814814814804,0)" xlink:href="#aM"/><use transform="matrix(0.06172839506172834,0,0,0.06172839506172834,154.13580246913568,0)" xlink:href="#aJ"/><use transform="matrix(0.06172839506172834,0,0,0.06172839506172834,166.48148148148135,0)" xlink:href="#aI"/><use transform="matrix(0.06172839506172834,0,0,0.06172839506172834,173.82716049382702,0)" xlink:href="#aK"/><use transform="matrix(0.06172839506172834,0,0,0.06172839506172834,186.1728395061727,0)" xlink:href="#aN"/><use transform="matrix(0.06172839506172834,0,0,0.06172839506172834,198.51851851851836,0)" xlink:href="#aI"/><use transform="matrix(0.06172839506172834,0,0,0.06172839506172834,205.86419753086403,0)" xlink:href="#aO"/><use transform="matrix(0.06172839506172834,0,0,0.06172839506172834,216.97530864197515,0)" xlink:href="#bg"/><use transform="matrix(0.06172839506172834,0,0,0.06172839506172834,224.32098765432082,0)" xlink:href="#bh"/></g><g id="s"><use transform="matrix(0.06172839506172834,0,0,0.06172839506172834,0,0)" xlink:href="#aM"/><use transform="matrix(0.06172839506172834,0,0,0.06172839506172834,15.987654320987641,0)" xlink:href="#aJ"/><use transform="matrix(0.06172839506172834,0,0,0.06172839506172834,28.333333333333307,0)" xlink:href="#aI"/><use transform="matrix(0.06172839506172834,0,0,0.06172839506172834,35.67901234567898,0)" xlink:href="#aK"/><use transform="matrix(0.06172839506172834,0,0,0.06172839506172834,48.02469135802465,0)" xlink:href="#aN"/><use transform="matrix(0.06172839506172834,0,0,0.06172839506172834,60.37037037037032,0)" xlink:href="#aI"/><use transform="matrix(0.06172839506172834,0,0,0.06172839506172834,67.716049382716,0)" xlink:href="#aP"/><use transform="matrix(0.06172839506172834,0,0,0.06172839506172834,73.88888888888883,0)" xlink:href="#aQ"/><use transform="matrix(0.06172839506172834,0,0,0.06172839506172834,86.2345679012345,0)" xlink:href="#aR"/></g><g id="t"><use transform="matrix(0.06172839506172834,0,0,0.06172839506172834,0,0)" xlink:href="#bc"/><use transform="matrix(0.06172839506172834,0,0,0.06172839506172834,12.345679012345668,0)" xlink:href="#aN"/><use transform="matrix(0.06172839506172834,0,0,0.06172839506172834,24.691358024691336,0)" xlink:href="#aL"/><use transform="matrix(0.06172839506172834,0,0,0.06172839506172834,30.86419753086417,0)" xlink:href="#bi"/><use transform="matrix(0.06172839506172834,0,0,0.06172839506172834,46.85185185185181,0)" xlink:href="#aK"/><use transform="matrix(0.06172839506172834,0,0,0.06172839506172834,59.19753086419748,0)" xlink:href="#aV"/><use transform="matrix(0.06172839506172834,0,0,0.06172839506172834,70.30864197530859,0)" xlink:href="#aJ"/><use transform="matrix(0.06172839506172834,0,0,0.06172839506172834,82.65432098765426,0)" xlink:href="#bj"/><use transform="matrix(0.06172839506172834,0,0,0.06172839506172834,93.76543209876536,0)" xlink:href="#aN"/><use transform="matrix(0.06172839506172834,0,0,0.06172839506172834,106.11111111111103,0)" xlink:href="#aI"/><use transform="matrix(0.06172839506172834,0,0,0.06172839506172834,113.4567901234567,0)" xlink:href="#aN"/><use transform="matrix(0.06172839506172834,0,0,0.06172839506172834,125.80246913580237,0)" xlink:href="#bf"/><use transform="matrix(0.06172839506172834,0,0,0.06172839506172834,138.14814814814804,0)" xlink:href="#aY"/><use transform="matrix(0.06172839506172834,0,0,0.06172839506172834,154.13580246913568,0)" xlink:href="#aN"/><use transform="matrix(0.06172839506172834,0,0,0.06172839506172834,166.48148148148135,0)" xlink:href="#aO"/><use transform="matrix(0.06172839506172834,0,0,0.06172839506172834,177.59259259259247,0)" xlink:href="#aJ"/><use transform="matrix(0.06172839506172834,0,0,0.06172839506172834,189.93827160493814,0)" xlink:href="#aZ"/><use transform="matrix(0.06172839506172834,0,0,0.06172839506172834,202.2839506172838,0)" xlink:href="#aI"/><use transform="matrix(0.06172839506172834,0,0,0.06172839506172834,209.62962962962948,0)" xlink:href="#aV"/><use transform="matrix(0.06172839506172834,0,0,0.06172839506172834,220.7407407407406,0)" xlink:href="#aN"/><use transform="matrix(0.06172839506172834,0,0,0.06172839506172834,233.08641975308626,0)" xlink:href="#aO"/><use transform="matrix(0.06172839506172834,0,0,0.06172839506172834,244.19753086419738,0)" xlink:href="#bg"/><use transform="matrix(0.06172839506172834,0,0,0.06172839506172834,251.54320987654305,0)" xlink:href="#bh"/></g><g id="u"><use transform="matrix(0.06172839506172834,0,0,0.06172839506172834,0,0)" xlink:href="#aY"/><use transform="matrix(0.06172839506172834,0,0,0.06172839506172834,15.987654320987641,0)" xlink:href="#aN"/><use transform="matrix(0.06172839506172834,0,0,0.06172839506172834,28.333333333333307,0)" xlink:href="#aO"/><use transform="matrix(0.06172839506172834,0,0,0.06172839506172834,39.44444444444441,0)" xlink:href="#aJ"/><use transform="matrix(0.06172839506172834,0,0,0.06172839506172834,51.79012345679008,0)" xlink:href="#aZ"/><use transform="matrix(0.06172839506172834,0,0,0.06172839506172834,64.13580246913574,0)" xlink:href="#aI"/><use transform="matrix(0.06172839506172834,0,0,0.06172839506172834,71.48148148148141,0)" xlink:href="#aV"/><use transform="matrix(0.06172839506172834,0,0,0.06172839506172834,82.59259259259251,0)" xlink:href="#aN"/><use transform="matrix(0.06172839506172834,0,0,0.06172839506172834,94.93827160493818,0)" xlink:href="#aP"/><use transform="matrix(0.06172839506172834,0,0,0.06172839506172834,101.11111111111101,0)" xlink:href="#aQ"/><use transform="matrix(0.06172839506172834,0,0,0.06172839506172834,113.45679012345668,0)" xlink:href="#aR"/></g><g id="v"><use transform="matrix(0.061728395061728385,0,0,0.061728395061728385,0,0)" xlink:href="#aY"/><use transform="matrix(0.061728395061728385,0,0,0.061728395061728385,15.987654320987652,0)" xlink:href="#aN"/><use transform="matrix(0.061728395061728385,0,0,0.061728395061728385,28.33333333333333,0)" xlink:href="#aO"/><use transform="matrix(0.061728395061728385,0,0,0.061728395061728385,39.444444444444436,0)" xlink:href="#aJ"/><use transform="matrix(0.061728395061728385,0,0,0.061728395061728385,51.79012345679011,0)" xlink:href="#aZ"/><use transform="matrix(0.061728395061728385,0,0,0.061728395061728385,64.1358024691358,0)" xlink:href="#aI"/><use transform="matrix(0.061728395061728385,0,0,0.061728395061728385,71.48148148148148,0)" xlink:href="#aV"/><use transform="matrix(0.061728395061728385,0,0,0.061728395061728385,82.5925925925926,0)" xlink:href="#aN"/><use transform="matrix(0.061728395061728385,0,0,0.061728395061728385,94.93827160493828,0)" xlink:href="#aM"/><use transform="matrix(0.061728395061728385,0,0,0.061728395061728385,110.92592592592592,0)" xlink:href="#aU"/><use transform="matrix(0.061728395061728385,0,0,0.061728395061728385,123.2716049382716,0)" xlink:href="#aI"/><use transform="matrix(0.061728395061728385,0,0,0.061728395061728385,130.61728395061726,0)" xlink:href="#bf"/></g><use transform="matrix(0.061728395061728385,0,0,0.061728395061728385,0,0)" xlink:href="#aG" id="w"/><path d="M24 0v-261h32V0H24" id="bk"/><g id="x"><use transform="matrix(0.061728395061728385,0,0,0.061728395061728385,0,0)" xlink:href="#aV"/><use transform="matrix(0.061728395061728385,0,0,0.061728395061728385,11.111111111111109,0)" xlink:href="#aJ"/><use transform="matrix(0.061728395061728385,0,0,0.061728395061728385,23.456790123456784,0)" xlink:href="#bk"/><use transform="matrix(0.061728395061728385,0,0,0.061728395061728385,28.33333333333333,0)" xlink:href="#aJ"/><use transform="matrix(0.061728395061728385,0,0,0.061728395061728385,40.679012345679006,0)" xlink:href="#aI"/></g><use transform="matrix(0.061728395061728385,0,0,0.061728395061728385,0,0)" xlink:href="#aS" id="y"/><g id="z"><use transform="matrix(0.061728395061728385,0,0,0.061728395061728385,0,0)" xlink:href="#aY"/><use transform="matrix(0.061728395061728385,0,0,0.061728395061728385,15.987654320987652,0)" xlink:href="#aN"/><use transform="matrix(0.061728395061728385,0,0,0.061728395061728385,28.33333333333333,0)" xlink:href="#aO"/><use transform="matrix(0.061728395061728385,0,0,0.061728395061728385,39.444444444444436,0)" xlink:href="#aJ"/><use transform="matrix(0.061728395061728385,0,0,0.061728395061728385,51.79012345679011,0)" xlink:href="#aZ"/><use transform="matrix(0.061728395061728385,0,0,0.061728395061728385,64.1358024691358,0)" xlink:href="#aI"/><use transform="matrix(0.061728395061728385,0,0,0.061728395061728385,71.48148148148148,0)" xlink:href="#aV"/><use transform="matrix(0.061728395061728385,0,0,0.061728395061728385,82.5925925925926,0)" xlink:href="#aN"/></g><path d="M115-194c55 1 70 41 70 98S169 2 115 4C84 4 66-9 55-30l1 105H24l-1-265h31l2 30c10-21 28-34 59-34zm-8 174c40 0 45-34 45-75s-6-73-45-74c-42 0-51 32-51 76 0 43 10 73 51 73" id="bl"/><g id="A"><use transform="matrix(0.061728395061728385,0,0,0.061728395061728385,0,0)" xlink:href="#bl"/><use transform="matrix(0.061728395061728385,0,0,0.061728395061728385,12.345679012345677,0)" xlink:href="#aJ"/><use transform="matrix(0.061728395061728385,0,0,0.061728395061728385,24.691358024691354,0)" xlink:href="#be"/><use transform="matrix(0.061728395061728385,0,0,0.061728395061728385,29.5679012345679,0)" xlink:href="#aK"/><use transform="matrix(0.061728395061728385,0,0,0.061728395061728385,41.913580246913575,0)" xlink:href="#aL"/><use transform="matrix(0.061728395061728385,0,0,0.061728395061728385,48.08641975308642,0)" xlink:href="#aO"/></g><g id="B"><use transform="matrix(0.061728395061728385,0,0,0.061728395061728385,0,0)" xlink:href="#be"/><use transform="matrix(0.061728395061728385,0,0,0.061728395061728385,4.876543209876543,0)" xlink:href="#aK"/><use transform="matrix(0.061728395061728385,0,0,0.061728395061728385,17.22222222222222,0)" xlink:href="#aL"/></g><use transform="matrix(0.061728395061728385,0,0,0.061728395061728385,0,0)" xlink:href="#bb" id="C"/><path d="M33 0v-248h34V0H33" id="bm"/><path d="M210-169c-67 3-38 105-44 169h-31v-121c0-29-5-50-35-48C34-165 62-65 56 0H25l-1-190h30c1 10-1 24 2 32 10-44 99-50 107 0 11-21 27-35 58-36 85-2 47 119 55 194h-31v-121c0-29-5-49-35-48" id="bn"/><g id="D"><use transform="matrix(0.06172839506172834,0,0,0.06172839506172834,0,0)" xlink:href="#bc"/><use transform="matrix(0.06172839506172834,0,0,0.06172839506172834,12.345679012345668,0)" xlink:href="#aN"/><use transform="matrix(0.06172839506172834,0,0,0.06172839506172834,24.691358024691336,0)" xlink:href="#aL"/><use transform="matrix(0.06172839506172834,0,0,0.06172839506172834,30.86419753086417,0)" xlink:href="#bi"/><use transform="matrix(0.06172839506172834,0,0,0.06172839506172834,46.85185185185181,0)" xlink:href="#aK"/><use transform="matrix(0.06172839506172834,0,0,0.06172839506172834,59.19753086419748,0)" xlink:href="#aV"/><use transform="matrix(0.06172839506172834,0,0,0.06172839506172834,70.30864197530859,0)" xlink:href="#aJ"/><use transform="matrix(0.06172839506172834,0,0,0.06172839506172834,82.65432098765426,0)" xlink:href="#bj"/><use transform="matrix(0.06172839506172834,0,0,0.06172839506172834,93.76543209876536,0)" xlink:href="#aN"/><use transform="matrix(0.06172839506172834,0,0,0.06172839506172834,106.11111111111103,0)" xlink:href="#aI"/><use transform="matrix(0.06172839506172834,0,0,0.06172839506172834,113.4567901234567,0)" xlink:href="#aN"/><use transform="matrix(0.06172839506172834,0,0,0.06172839506172834,125.80246913580237,0)" xlink:href="#bf"/><use transform="matrix(0.06172839506172834,0,0,0.06172839506172834,138.14814814814804,0)" xlink:href="#bm"/><use transform="matrix(0.06172839506172834,0,0,0.06172839506172834,144.32098765432087,0)" xlink:href="#aL"/><use transform="matrix(0.06172839506172834,0,0,0.06172839506172834,150.4938271604937,0)" xlink:href="#aN"/><use transform="matrix(0.06172839506172834,0,0,0.06172839506172834,162.83950617283938,0)" xlink:href="#bn"/><use transform="matrix(0.06172839506172834,0,0,0.06172839506172834,181.29629629629616,0)" xlink:href="#aO"/><use transform="matrix(0.06172839506172834,0,0,0.06172839506172834,192.40740740740728,0)" xlink:href="#bg"/><use transform="matrix(0.06172839506172834,0,0,0.06172839506172834,199.75308641975295,0)" xlink:href="#bh"/></g><g id="E"><use transform="matrix(0.06172839506172834,0,0,0.06172839506172834,0,0)" xlink:href="#bm"/><use transform="matrix(0.06172839506172834,0,0,0.06172839506172834,6.172839506172834,0)" xlink:href="#aL"/><use transform="matrix(0.06172839506172834,0,0,0.06172839506172834,12.345679012345668,0)" xlink:href="#aN"/><use transform="matrix(0.06172839506172834,0,0,0.06172839506172834,24.691358024691336,0)" xlink:href="#bn"/></g><path d="M143 4C61 4 22-44 18-125c-5-107 100-154 193-111 17 8 29 25 37 43l-32 9c-13-25-37-40-76-40-61 0-88 39-88 99 0 61 29 100 91 101 35 0 62-11 79-27v-45h-74v-28h105v86C228-13 192 4 143 4" id="bo"/><g id="F"><use transform="matrix(0.061728395061728385,0,0,0.061728395061728385,0,0)" xlink:href="#bo"/><use transform="matrix(0.061728395061728385,0,0,0.061728395061728385,17.28395061728395,0)" xlink:href="#aJ"/><use transform="matrix(0.061728395061728385,0,0,0.061728395061728385,29.629629629629626,0)" xlink:href="#bk"/><use transform="matrix(0.061728395061728385,0,0,0.061728395061728385,34.50617283950617,0)" xlink:href="#bf"/><use transform="matrix(0.061728395061728385,0,0,0.061728395061728385,46.85185185185185,0)" xlink:href="#aM"/><use transform="matrix(0.061728395061728385,0,0,0.061728395061728385,62.8395061728395,0)" xlink:href="#aU"/><use transform="matrix(0.061728395061728385,0,0,0.061728395061728385,75.18518518518518,0)" xlink:href="#aI"/><use transform="matrix(0.061728395061728385,0,0,0.061728395061728385,82.53086419753086,0)" xlink:href="#bf"/></g><path d="M106-169C34-169 62-67 57 0H25v-261h32l-1 103c12-21 28-36 61-36 89 0 53 116 60 194h-32v-121c2-32-8-49-39-48" id="bp"/><g id="G"><use transform="matrix(0.061728395061728385,0,0,0.061728395061728385,0,0)" xlink:href="#aV"/><use transform="matrix(0.061728395061728385,0,0,0.061728395061728385,11.111111111111109,0)" xlink:href="#bp"/><use transform="matrix(0.061728395061728385,0,0,0.061728395061728385,23.456790123456784,0)" xlink:href="#aU"/><use transform="matrix(0.061728395061728385,0,0,0.061728395061728385,35.80246913580246,0)" xlink:href="#bk"/><use transform="matrix(0.061728395061728385,0,0,0.061728395061728385,40.679012345679006,0)" xlink:href="#bk"/><use transform="matrix(0.061728395061728385,0,0,0.061728395061728385,45.55555555555555,0)" xlink:href="#aN"/><use transform="matrix(0.061728395061728385,0,0,0.061728395061728385,57.90123456790123,0)" xlink:href="#aK"/><use transform="matrix(0.061728395061728385,0,0,0.061728395061728385,70.24691358024691,0)" xlink:href="#bc"/><use transform="matrix(0.061728395061728385,0,0,0.061728395061728385,82.59259259259258,0)" xlink:href="#aN"/></g><g id="H"><use transform="matrix(0.061728395061728385,0,0,0.061728395061728385,0,0)" xlink:href="#aM"/><use transform="matrix(0.061728395061728385,0,0,0.061728395061728385,15.987654320987652,0)" xlink:href="#bp"/><use transform="matrix(0.061728395061728385,0,0,0.061728395061728385,28.33333333333333,0)" xlink:href="#aU"/><use transform="matrix(0.061728395061728385,0,0,0.061728395061728385,40.679012345679006,0)" xlink:href="#bk"/><use transform="matrix(0.061728395061728385,0,0,0.061728395061728385,45.55555555555555,0)" xlink:href="#bk"/><use transform="matrix(0.061728395061728385,0,0,0.061728395061728385,50.432098765432094,0)" xlink:href="#aN"/><use transform="matrix(0.061728395061728385,0,0,0.061728395061728385,62.77777777777777,0)" xlink:href="#aK"/><use transform="matrix(0.061728395061728385,0,0,0.061728395061728385,75.12345679012344,0)" xlink:href="#bc"/><use transform="matrix(0.061728395061728385,0,0,0.061728395061728385,87.46913580246911,0)" xlink:href="#aN"/></g><path d="M190 0L58-211 59 0H30v-248h39L202-35l-2-213h31V0h-41" id="bq"/><g id="I"><use transform="matrix(0.061728395061728385,0,0,0.061728395061728385,0,0)" xlink:href="#aI"/><use transform="matrix(0.061728395061728385,0,0,0.061728395061728385,7.345679012345678,0)" xlink:href="#aN"/><use transform="matrix(0.061728395061728385,0,0,0.061728395061728385,19.691358024691354,0)" xlink:href="#aO"/><use transform="matrix(0.061728395061728385,0,0,0.061728395061728385,30.80246913580246,0)" xlink:href="#aJ"/><use transform="matrix(0.061728395061728385,0,0,0.061728395061728385,43.14814814814814,0)" xlink:href="#aZ"/><use transform="matrix(0.061728395061728385,0,0,0.061728395061728385,55.493827160493815,0)" xlink:href="#aI"/><use transform="matrix(0.061728395061728385,0,0,0.061728395061728385,62.83950617283949,0)" xlink:href="#aV"/><use transform="matrix(0.061728395061728385,0,0,0.061728395061728385,73.9506172839506,0)" xlink:href="#aN"/><use transform="matrix(0.061728395061728385,0,0,0.061728395061728385,86.29629629629628,0)" xlink:href="#bq"/><use transform="matrix(0.061728395061728385,0,0,0.061728395061728385,102.28395061728392,0)" xlink:href="#aN"/><use transform="matrix(0.061728395061728385,0,0,0.061728395061728385,114.62962962962959,0)" xlink:href="#aN"/><use transform="matrix(0.061728395061728385,0,0,0.061728395061728385,126.97530864197526,0)" xlink:href="#bf"/><use transform="matrix(0.061728395061728385,0,0,0.061728395061728385,139.32098765432093,0)" xlink:href="#aN"/><use transform="matrix(0.061728395061728385,0,0,0.061728395061728385,151.6666666666666,0)" xlink:href="#bf"/><use transform="matrix(0.061728395061728385,0,0,0.061728395061728385,164.01234567901227,0)" xlink:href="#aS"/></g><path d="M54-142c48-35 137-8 131 61C196 18 31 33 14-55l32-4c7 23 22 37 52 37 35-1 51-22 54-58 4-55-73-65-99-34H22l8-134h141v27H59" id="br"/><g id="J"><use transform="matrix(0.061728395061728385,0,0,0.061728395061728385,0,0)" xlink:href="#aY"/><use transform="matrix(0.061728395061728385,0,0,0.061728395061728385,15.987654320987652,0)" xlink:href="#aN"/><use transform="matrix(0.061728395061728385,0,0,0.061728395061728385,28.33333333333333,0)" xlink:href="#aO"/><use transform="matrix(0.061728395061728385,0,0,0.061728395061728385,39.444444444444436,0)" xlink:href="#aJ"/><use transform="matrix(0.061728395061728385,0,0,0.061728395061728385,51.79012345679011,0)" xlink:href="#aZ"/><use transform="matrix(0.061728395061728385,0,0,0.061728395061728385,64.1358024691358,0)" xlink:href="#aI"/><use transform="matrix(0.061728395061728385,0,0,0.061728395061728385,71.48148148148148,0)" xlink:href="#aV"/><use transform="matrix(0.061728395061728385,0,0,0.061728395061728385,82.5925925925926,0)" xlink:href="#aN"/><use transform="matrix(0.061728395061728385,0,0,0.061728395061728385,94.93827160493828,0)" xlink:href="#aP"/><use transform="matrix(0.061728395061728385,0,0,0.061728395061728385,101.11111111111111,0)" xlink:href="#br"/><use transform="matrix(0.061728395061728385,0,0,0.061728395061728385,113.45679012345678,0)" xlink:href="#aR"/></g><g id="K"><use transform="matrix(0.061728395061728385,0,0,0.061728395061728385,0,0)" xlink:href="#bl"/><use transform="matrix(0.061728395061728385,0,0,0.061728395061728385,12.345679012345677,0)" xlink:href="#aJ"/><use transform="matrix(0.061728395061728385,0,0,0.061728395061728385,24.691358024691354,0)" xlink:href="#be"/><use transform="matrix(0.061728395061728385,0,0,0.061728395061728385,29.5679012345679,0)" xlink:href="#aK"/><use transform="matrix(0.061728395061728385,0,0,0.061728395061728385,41.913580246913575,0)" xlink:href="#aL"/><use transform="matrix(0.061728395061728385,0,0,0.061728395061728385,48.08641975308642,0)" xlink:href="#aO"/><use transform="matrix(0.061728395061728385,0,0,0.061728395061728385,59.197530864197525,0)" xlink:href="#aS"/></g><use transform="matrix(0.061728395061728385,0,0,0.061728395061728385,0,0)" xlink:href="#bb" id="L"/><g id="M"><use transform="matrix(0.06172839506172834,0,0,0.06172839506172834,0,0)" xlink:href="#bc"/><use transform="matrix(0.06172839506172834,0,0,0.06172839506172834,12.345679012345668,0)" xlink:href="#aN"/><use transform="matrix(0.06172839506172834,0,0,0.06172839506172834,24.691358024691336,0)" xlink:href="#aL"/><use transform="matrix(0.06172839506172834,0,0,0.06172839506172834,30.86419753086417,0)" xlink:href="#bi"/><use transform="matrix(0.06172839506172834,0,0,0.06172839506172834,46.85185185185181,0)" xlink:href="#aK"/><use transform="matrix(0.06172839506172834,0,0,0.06172839506172834,59.19753086419748,0)" xlink:href="#aV"/><use transform="matrix(0.06172839506172834,0,0,0.06172839506172834,70.30864197530859,0)" xlink:href="#aJ"/><use transform="matrix(0.06172839506172834,0,0,0.06172839506172834,82.65432098765426,0)" xlink:href="#bj"/><use transform="matrix(0.06172839506172834,0,0,0.06172839506172834,93.76543209876536,0)" xlink:href="#aN"/><use transform="matrix(0.06172839506172834,0,0,0.06172839506172834,106.11111111111103,0)" xlink:href="#aI"/><use transform="matrix(0.06172839506172834,0,0,0.06172839506172834,113.4567901234567,0)" xlink:href="#aN"/><use transform="matrix(0.06172839506172834,0,0,0.06172839506172834,125.80246913580237,0)" xlink:href="#bf"/><use transform="matrix(0.06172839506172834,0,0,0.06172839506172834,138.14814814814804,0)" xlink:href="#bm"/><use transform="matrix(0.06172839506172834,0,0,0.06172839506172834,144.32098765432087,0)" xlink:href="#aL"/><use transform="matrix(0.06172839506172834,0,0,0.06172839506172834,150.4938271604937,0)" xlink:href="#aN"/><use transform="matrix(0.06172839506172834,0,0,0.06172839506172834,162.83950617283938,0)" xlink:href="#bn"/><use transform="matrix(0.06172839506172834,0,0,0.06172839506172834,181.29629629629616,0)" xlink:href="#aO"/><use transform="matrix(0.06172839506172834,0,0,0.06172839506172834,192.40740740740728,0)" xlink:href="#bg"/><use transform="matrix(0.06172839506172834,0,0,0.06172839506172834,199.75308641975295,0)" xlink:href="#bh"/></g><path d="M185-189c-5-48-123-54-124 2 14 75 158 14 163 119 3 78-121 87-175 55-17-10-28-26-33-46l33-7c5 56 141 63 141-1 0-78-155-14-162-118-5-82 145-84 179-34 5 7 8 16 11 25" id="bs"/><g id="N"><use transform="matrix(0.061728395061728385,0,0,0.061728395061728385,0,0)" xlink:href="#bs"/><use transform="matrix(0.061728395061728385,0,0,0.061728395061728385,14.814814814814813,0)" xlink:href="#aL"/><use transform="matrix(0.061728395061728385,0,0,0.061728395061728385,20.98765432098765,0)" xlink:href="#aU"/><use transform="matrix(0.061728395061728385,0,0,0.061728395061728385,33.33333333333333,0)" xlink:href="#aI"/><use transform="matrix(0.061728395061728385,0,0,0.061728395061728385,40.679012345679006,0)" xlink:href="#aL"/><use transform="matrix(0.061728395061728385,0,0,0.061728395061728385,46.85185185185185,0)" xlink:href="#aN"/><use transform="matrix(0.061728395061728385,0,0,0.061728395061728385,59.197530864197525,0)" xlink:href="#aI"/><use transform="matrix(0.061728395061728385,0,0,0.061728395061728385,66.5432098765432,0)" xlink:href="#aM"/><use transform="matrix(0.061728395061728385,0,0,0.061728395061728385,82.53086419753086,0)" xlink:href="#aU"/><use transform="matrix(0.061728395061728385,0,0,0.061728395061728385,94.87654320987653,0)" xlink:href="#aI"/><use transform="matrix(0.061728395061728385,0,0,0.061728395061728385,102.22222222222221,0)" xlink:href="#bf"/></g><g id="O"><use transform="matrix(0.061728395061728385,0,0,0.061728395061728385,0,0)" xlink:href="#aM"/><use transform="matrix(0.061728395061728385,0,0,0.061728395061728385,15.987654320987652,0)" xlink:href="#aJ"/><use transform="matrix(0.061728395061728385,0,0,0.061728395061728385,28.33333333333333,0)" xlink:href="#aI"/><use transform="matrix(0.061728395061728385,0,0,0.061728395061728385,35.679012345679006,0)" xlink:href="#aK"/><use transform="matrix(0.061728395061728385,0,0,0.061728395061728385,48.02469135802468,0)" xlink:href="#aN"/><use transform="matrix(0.061728395061728385,0,0,0.061728395061728385,60.37037037037036,0)" xlink:href="#aI"/></g><g id="P"><use transform="matrix(0.061728395061728385,0,0,0.061728395061728385,0,0)" xlink:href="#aV"/><use transform="matrix(0.061728395061728385,0,0,0.061728395061728385,11.111111111111109,0)" xlink:href="#aJ"/><use transform="matrix(0.061728395061728385,0,0,0.061728395061728385,23.456790123456784,0)" xlink:href="#bj"/><use transform="matrix(0.061728395061728385,0,0,0.061728395061728385,34.56790123456789,0)" xlink:href="#aN"/><use transform="matrix(0.061728395061728385,0,0,0.061728395061728385,46.91358024691357,0)" xlink:href="#aI"/><use transform="matrix(0.061728395061728385,0,0,0.061728395061728385,54.259259259259245,0)" xlink:href="#aN"/><use transform="matrix(0.061728395061728385,0,0,0.061728395061728385,66.60493827160492,0)" xlink:href="#bf"/></g><g id="Q"><use transform="matrix(0.061728395061728385,0,0,0.061728395061728385,0,0)" xlink:href="#aX"/><use transform="matrix(0.061728395061728385,0,0,0.061728395061728385,14.814814814814813,0)" xlink:href="#aJ"/><use transform="matrix(0.061728395061728385,0,0,0.061728395061728385,27.16049382716049,0)" xlink:href="#aJ"/><use transform="matrix(0.061728395061728385,0,0,0.061728395061728385,39.50617283950616,0)" xlink:href="#bk"/><use transform="matrix(0.061728395061728385,0,0,0.061728395061728385,44.38271604938271,0)" xlink:href="#aN"/><use transform="matrix(0.061728395061728385,0,0,0.061728395061728385,56.728395061728385,0)" xlink:href="#aU"/><use transform="matrix(0.061728395061728385,0,0,0.061728395061728385,69.07407407407406,0)" xlink:href="#aK"/></g><g id="R"><use transform="matrix(0.061728395061728385,0,0,0.061728395061728385,0,0)" xlink:href="#be"/><use transform="matrix(0.061728395061728385,0,0,0.061728395061728385,4.876543209876543,0)" xlink:href="#aL"/><use transform="matrix(0.061728395061728385,0,0,0.061728395061728385,11.049382716049381,0)" xlink:href="#aN"/><use transform="matrix(0.061728395061728385,0,0,0.061728395061728385,23.395061728395056,0)" xlink:href="#bn"/></g><g id="S"><use transform="matrix(0.061728395061728385,0,0,0.061728395061728385,0,0)" xlink:href="#bm"/><use transform="matrix(0.061728395061728385,0,0,0.061728395061728385,6.1728395061728385,0)" xlink:href="#aL"/><use transform="matrix(0.061728395061728385,0,0,0.061728395061728385,12.345679012345677,0)" xlink:href="#aN"/><use transform="matrix(0.061728395061728385,0,0,0.061728395061728385,24.691358024691354,0)" xlink:href="#bn"/></g><g id="T"><use transform="matrix(0.061728395061728385,0,0,0.061728395061728385,0,0)" xlink:href="#aI"/><use transform="matrix(0.061728395061728385,0,0,0.061728395061728385,7.345679012345678,0)" xlink:href="#aN"/><use transform="matrix(0.061728395061728385,0,0,0.061728395061728385,19.691358024691354,0)" xlink:href="#aO"/><use transform="matrix(0.061728395061728385,0,0,0.061728395061728385,30.80246913580246,0)" xlink:href="#aJ"/><use transform="matrix(0.061728395061728385,0,0,0.061728395061728385,43.14814814814814,0)" xlink:href="#aZ"/><use transform="matrix(0.061728395061728385,0,0,0.061728395061728385,55.493827160493815,0)" xlink:href="#aI"/><use transform="matrix(0.061728395061728385,0,0,0.061728395061728385,62.83950617283949,0)" xlink:href="#aV"/><use transform="matrix(0.061728395061728385,0,0,0.061728395061728385,73.9506172839506,0)" xlink:href="#aN"/></g><g id="U"><use transform="matrix(0.061728395061728385,0,0,0.061728395061728385,0,0)" xlink:href="#bk"/><use transform="matrix(0.061728395061728385,0,0,0.061728395061728385,4.876543209876543,0)" xlink:href="#be"/><use transform="matrix(0.061728395061728385,0,0,0.061728395061728385,9.753086419753085,0)" xlink:href="#aK"/><use transform="matrix(0.061728395061728385,0,0,0.061728395061728385,22.098765432098762,0)" xlink:href="#aW"/><use transform="matrix(0.061728395061728385,0,0,0.061728395061728385,33.20987654320987,0)" xlink:href="#aN"/><use transform="matrix(0.061728395061728385,0,0,0.061728395061728385,45.55555555555555,0)" xlink:href="#bf"/><use transform="matrix(0.061728395061728385,0,0,0.061728395061728385,57.90123456790123,0)" xlink:href="#aM"/><use transform="matrix(0.061728395061728385,0,0,0.061728395061728385,73.88888888888889,0)" xlink:href="#aJ"/><use transform="matrix(0.061728395061728385,0,0,0.061728395061728385,86.23456790123456,0)" xlink:href="#aI"/><use transform="matrix(0.061728395061728385,0,0,0.061728395061728385,93.58024691358024,0)" xlink:href="#aK"/><use transform="matrix(0.061728395061728385,0,0,0.061728395061728385,105.92592592592592,0)" xlink:href="#aN"/><use transform="matrix(0.061728395061728385,0,0,0.061728395061728385,118.2716049382716,0)" xlink:href="#aI"/></g><g id="V"><use transform="matrix(0.061728395061728385,0,0,0.061728395061728385,0,0)" xlink:href="#aM"/><use transform="matrix(0.061728395061728385,0,0,0.061728395061728385,15.987654320987652,0)" xlink:href="#aJ"/><use transform="matrix(0.061728395061728385,0,0,0.061728395061728385,28.33333333333333,0)" xlink:href="#aI"/><use transform="matrix(0.061728395061728385,0,0,0.061728395061728385,35.679012345679006,0)" xlink:href="#aK"/><use transform="matrix(0.061728395061728385,0,0,0.061728395061728385,48.02469135802468,0)" xlink:href="#aN"/><use transform="matrix(0.061728395061728385,0,0,0.061728395061728385,60.37037037037036,0)" xlink:href="#aI"/></g><path d="M20-101c0-91 52-143 145-150 126-9 127 168 53 223-23 17-55 32-93 32C57 4 20-33 20-101zm216-33c5-57-18-91-73-90-77 1-110 51-110 125 0 49 23 75 73 75 72-1 104-45 110-110" id="bt"/><path d="M51-231l6-30h31l-6 30H51zM33 24C28 60 2 84-40 72c3-12-1-29 18-22C-5 49-1 37 2 19l41-209h32" id="bu"/><path d="M50-231l6-30h32l-6 30H50zM6 0l37-190h31L37 0H6" id="bv"/><path d="M89 0H52L20-190h33L74-25l89-165h34" id="bw"/><g id="W"><use transform="matrix(0.06172839506172835,0,0,0.06172839506172835,0,0)" xlink:href="#bt"/><use transform="matrix(0.06172839506172835,0,0,0.06172839506172835,17.28395061728394,0)" xlink:href="#aB"/><use transform="matrix(0.06172839506172835,0,0,0.06172839506172835,29.62962962962961,0)" xlink:href="#bu"/><use transform="matrix(0.06172839506172835,0,0,0.06172839506172835,34.50617283950615,0)" xlink:href="#ax"/><use transform="matrix(0.06172839506172835,0,0,0.06172839506172835,46.85185185185182,0)" xlink:href="#aE"/><use transform="matrix(0.06172839506172835,0,0,0.06172839506172835,57.96296296296292,0)" xlink:href="#aD"/><use transform="matrix(0.06172839506172835,0,0,0.06172839506172835,64.13580246913575,0)" xlink:href="#bv"/><use transform="matrix(0.06172839506172835,0,0,0.06172839506172835,69.0123456790123,0)" xlink:href="#bw"/><use transform="matrix(0.06172839506172835,0,0,0.06172839506172835,80.1234567901234,0)" xlink:href="#ax"/><use transform="matrix(0.06172839506172835,0,0,0.06172839506172835,92.46913580246907,0)" xlink:href="#at"/><use transform="matrix(0.06172839506172835,0,0,0.06172839506172835,108.45679012345671,0)" xlink:href="#ay"/><use transform="matrix(0.06172839506172835,0,0,0.06172839506172835,120.80246913580238,0)" xlink:href="#av"/><use transform="matrix(0.06172839506172835,0,0,0.06172839506172835,128.14814814814807,0)" xlink:href="#az"/></g><g id="X"><use transform="matrix(0.06172839506172835,0,0,0.06172839506172835,0,0)" xlink:href="#aV"/><use transform="matrix(0.06172839506172835,0,0,0.06172839506172835,11.111111111111104,0)" xlink:href="#bp"/><use transform="matrix(0.06172839506172835,0,0,0.06172839506172835,23.456790123456774,0)" xlink:href="#aU"/><use transform="matrix(0.06172839506172835,0,0,0.06172839506172835,35.80246913580244,0)" xlink:href="#bk"/><use transform="matrix(0.06172839506172835,0,0,0.06172839506172835,40.67901234567898,0)" xlink:href="#bk"/><use transform="matrix(0.06172839506172835,0,0,0.06172839506172835,45.555555555555515,0)" xlink:href="#aN"/><use transform="matrix(0.06172839506172835,0,0,0.06172839506172835,57.901234567901184,0)" xlink:href="#aK"/><use transform="matrix(0.06172839506172835,0,0,0.06172839506172835,70.24691358024685,0)" xlink:href="#bc"/><use transform="matrix(0.06172839506172835,0,0,0.06172839506172835,82.59259259259252,0)" xlink:href="#aN"/><use transform="matrix(0.06172839506172835,0,0,0.06172839506172835,94.9382716049382,0)" xlink:href="#aS"/></g><g id="Y"><use transform="matrix(0.06172839506172835,0,0,0.06172839506172835,0,0)" xlink:href="#aM"/><use transform="matrix(0.06172839506172835,0,0,0.06172839506172835,15.987654320987643,0)" xlink:href="#bp"/><use transform="matrix(0.06172839506172835,0,0,0.06172839506172835,28.333333333333314,0)" xlink:href="#aU"/><use transform="matrix(0.06172839506172835,0,0,0.06172839506172835,40.679012345678984,0)" xlink:href="#bk"/><use transform="matrix(0.06172839506172835,0,0,0.06172839506172835,45.55555555555552,0)" xlink:href="#bk"/><use transform="matrix(0.06172839506172835,0,0,0.06172839506172835,50.43209876543206,0)" xlink:href="#aN"/><use transform="matrix(0.06172839506172835,0,0,0.06172839506172835,62.77777777777773,0)" xlink:href="#aK"/><use transform="matrix(0.06172839506172835,0,0,0.06172839506172835,75.1234567901234,0)" xlink:href="#bc"/><use transform="matrix(0.06172839506172835,0,0,0.06172839506172835,87.46913580246907,0)" xlink:href="#aN"/></g><g id="Z"><use transform="matrix(0.06172839506172834,0,0,0.06172839506172834,0,0)" xlink:href="#bc"/><use transform="matrix(0.06172839506172834,0,0,0.06172839506172834,12.345679012345668,0)" xlink:href="#aN"/><use transform="matrix(0.06172839506172834,0,0,0.06172839506172834,24.691358024691336,0)" xlink:href="#aL"/><use transform="matrix(0.06172839506172834,0,0,0.06172839506172834,30.86419753086417,0)" xlink:href="#aM"/><use transform="matrix(0.06172839506172834,0,0,0.06172839506172834,46.85185185185181,0)" xlink:href="#bp"/><use transform="matrix(0.06172839506172834,0,0,0.06172839506172834,59.19753086419748,0)" xlink:href="#aU"/><use transform="matrix(0.06172839506172834,0,0,0.06172839506172834,71.54320987654314,0)" xlink:href="#bk"/><use transform="matrix(0.06172839506172834,0,0,0.06172839506172834,76.41975308641969,0)" xlink:href="#bk"/><use transform="matrix(0.06172839506172834,0,0,0.06172839506172834,81.29629629629623,0)" xlink:href="#aN"/><use transform="matrix(0.06172839506172834,0,0,0.06172839506172834,93.6419753086419,0)" xlink:href="#aK"/><use transform="matrix(0.06172839506172834,0,0,0.06172839506172834,105.98765432098757,0)" xlink:href="#bc"/><use transform="matrix(0.06172839506172834,0,0,0.06172839506172834,118.33333333333324,0)" xlink:href="#aN"/><use transform="matrix(0.06172839506172834,0,0,0.06172839506172834,130.6790123456789,0)" xlink:href="#bg"/><use transform="matrix(0.06172839506172834,0,0,0.06172839506172834,138.02469135802457,0)" xlink:href="#bh"/></g><g id="aa"><use transform="matrix(0.06172839506172834,0,0,0.06172839506172834,0,0)" xlink:href="#aM"/><use transform="matrix(0.06172839506172834,0,0,0.06172839506172834,15.987654320987641,0)" xlink:href="#bp"/><use transform="matrix(0.06172839506172834,0,0,0.06172839506172834,28.333333333333307,0)" xlink:href="#aU"/><use transform="matrix(0.06172839506172834,0,0,0.06172839506172834,40.67901234567898,0)" xlink:href="#bk"/><use transform="matrix(0.06172839506172834,0,0,0.06172839506172834,45.555555555555515,0)" xlink:href="#bk"/><use transform="matrix(0.06172839506172834,0,0,0.06172839506172834,50.43209876543205,0)" xlink:href="#aN"/><use transform="matrix(0.06172839506172834,0,0,0.06172839506172834,62.77777777777772,0)" xlink:href="#aK"/><use transform="matrix(0.06172839506172834,0,0,0.06172839506172834,75.12345679012338,0)" xlink:href="#bc"/><use transform="matrix(0.06172839506172834,0,0,0.06172839506172834,87.46913580246905,0)" xlink:href="#aN"/></g><g id="ab"><use transform="matrix(0.061728395061728385,0,0,0.061728395061728385,0,0)" xlink:href="#bm"/><use transform="matrix(0.061728395061728385,0,0,0.061728395061728385,6.1728395061728385,0)" xlink:href="#aL"/><use transform="matrix(0.061728395061728385,0,0,0.061728395061728385,12.345679012345677,0)" xlink:href="#aN"/><use transform="matrix(0.061728395061728385,0,0,0.061728395061728385,24.691358024691354,0)" xlink:href="#bn"/><use transform="matrix(0.061728395061728385,0,0,0.061728395061728385,43.14814814814814,0)" xlink:href="#aM"/><use transform="matrix(0.061728395061728385,0,0,0.061728395061728385,59.13580246913579,0)" xlink:href="#bp"/><use transform="matrix(0.061728395061728385,0,0,0.061728395061728385,71.48148148148147,0)" xlink:href="#aU"/><use transform="matrix(0.061728395061728385,0,0,0.061728395061728385,83.82716049382714,0)" xlink:href="#bk"/><use transform="matrix(0.061728395061728385,0,0,0.061728395061728385,88.70370370370368,0)" xlink:href="#bk"/><use transform="matrix(0.061728395061728385,0,0,0.061728395061728385,93.58024691358023,0)" xlink:href="#aN"/><use transform="matrix(0.061728395061728385,0,0,0.061728395061728385,105.9259259259259,0)" xlink:href="#aK"/><use transform="matrix(0.061728395061728385,0,0,0.061728395061728385,118.27160493827157,0)" xlink:href="#bc"/><use transform="matrix(0.061728395061728385,0,0,0.061728395061728385,130.61728395061724,0)" xlink:href="#aN"/></g><g id="ac"><use transform="matrix(0.061728395061728385,0,0,0.061728395061728385,0,0)" xlink:href="#be"/><use transform="matrix(0.061728395061728385,0,0,0.061728395061728385,4.876543209876543,0)" xlink:href="#aL"/><use transform="matrix(0.061728395061728385,0,0,0.061728395061728385,11.049382716049381,0)" xlink:href="#aN"/><use transform="matrix(0.061728395061728385,0,0,0.061728395061728385,23.395061728395056,0)" xlink:href="#bn"/><use transform="matrix(0.061728395061728385,0,0,0.061728395061728385,41.85185185185185,0)" xlink:href="#aS"/></g><g id="ad"><use transform="matrix(0.061728395061728385,0,0,0.061728395061728385,0,0)" xlink:href="#bm"/><use transform="matrix(0.061728395061728385,0,0,0.061728395061728385,6.1728395061728385,0)" xlink:href="#aL"/><use transform="matrix(0.061728395061728385,0,0,0.061728395061728385,12.345679012345677,0)" xlink:href="#aN"/><use transform="matrix(0.061728395061728385,0,0,0.061728395061728385,24.691358024691354,0)" xlink:href="#bn"/><use transform="matrix(0.061728395061728385,0,0,0.061728395061728385,43.14814814814814,0)" xlink:href="#aP"/><use transform="matrix(0.061728395061728385,0,0,0.061728395061728385,49.32098765432097,0)" xlink:href="#ba"/><use transform="matrix(0.061728395061728385,0,0,0.061728395061728385,61.66666666666665,0)" xlink:href="#aR"/></g><g id="ae"><use transform="matrix(0.061728395061728385,0,0,0.061728395061728385,0,0)" xlink:href="#bo"/><use transform="matrix(0.061728395061728385,0,0,0.061728395061728385,17.28395061728395,0)" xlink:href="#aJ"/><use transform="matrix(0.061728395061728385,0,0,0.061728395061728385,29.629629629629626,0)" xlink:href="#bk"/><use transform="matrix(0.061728395061728385,0,0,0.061728395061728385,34.50617283950617,0)" xlink:href="#bf"/><use transform="matrix(0.061728395061728385,0,0,0.061728395061728385,46.85185185185185,0)" xlink:href="#aM"/><use transform="matrix(0.061728395061728385,0,0,0.061728395061728385,62.8395061728395,0)" xlink:href="#aJ"/><use transform="matrix(0.061728395061728385,0,0,0.061728395061728385,75.18518518518518,0)" xlink:href="#bj"/><use transform="matrix(0.061728395061728385,0,0,0.061728395061728385,86.29629629629629,0)" xlink:href="#aN"/><use transform="matrix(0.061728395061728385,0,0,0.061728395061728385,98.64197530864197,0)" xlink:href="#aI"/><use transform="matrix(0.061728395061728385,0,0,0.061728395061728385,105.98765432098766,0)" xlink:href="#aU"/><use transform="matrix(0.061728395061728385,0,0,0.061728395061728385,118.33333333333334,0)" xlink:href="#bc"/><use transform="matrix(0.061728395061728385,0,0,0.061728395061728385,130.679012345679,0)" xlink:href="#aN"/><use transform="matrix(0.061728395061728385,0,0,0.061728395061728385,143.02469135802468,0)" xlink:href="#aM"/><use transform="matrix(0.061728395061728385,0,0,0.061728395061728385,159.01234567901233,0)" xlink:href="#bp"/><use transform="matrix(0.061728395061728385,0,0,0.061728395061728385,171.358024691358,0)" xlink:href="#aU"/><use transform="matrix(0.061728395061728385,0,0,0.061728395061728385,183.70370370370367,0)" xlink:href="#bk"/><use transform="matrix(0.061728395061728385,0,0,0.061728395061728385,188.5802469135802,0)" xlink:href="#bk"/><use transform="matrix(0.061728395061728385,0,0,0.061728395061728385,193.45679012345673,0)" xlink:href="#aN"/><use transform="matrix(0.061728395061728385,0,0,0.061728395061728385,205.8024691358024,0)" xlink:href="#aK"/><use transform="matrix(0.061728395061728385,0,0,0.061728395061728385,218.14814814814807,0)" xlink:href="#bc"/><use transform="matrix(0.061728395061728385,0,0,0.061728395061728385,230.49382716049374,0)" xlink:href="#aN"/></g><g id="af"><use transform="matrix(0.061728395061728385,0,0,0.061728395061728385,0,0)" xlink:href="#bs"/><use transform="matrix(0.061728395061728385,0,0,0.061728395061728385,14.814814814814813,0)" xlink:href="#aL"/><use transform="matrix(0.061728395061728385,0,0,0.061728395061728385,20.98765432098765,0)" xlink:href="#aI"/><use transform="matrix(0.061728395061728385,0,0,0.061728395061728385,28.33333333333333,0)" xlink:href="#aZ"/><use transform="matrix(0.061728395061728385,0,0,0.061728395061728385,40.679012345679006,0)" xlink:href="#aV"/><use transform="matrix(0.061728395061728385,0,0,0.061728395061728385,51.79012345679011,0)" xlink:href="#aL"/><use transform="matrix(0.061728395061728385,0,0,0.061728395061728385,57.96296296296295,0)" xlink:href="#aZ"/><use transform="matrix(0.061728395061728385,0,0,0.061728395061728385,70.30864197530863,0)" xlink:href="#aI"/><use transform="matrix(0.061728395061728385,0,0,0.061728395061728385,77.65432098765432,0)" xlink:href="#aN"/><use transform="matrix(0.061728395061728385,0,0,0.061728395061728385,90,0)" xlink:href="#aM"/><use transform="matrix(0.061728395061728385,0,0,0.061728395061728385,105.98765432098764,0)" xlink:href="#bp"/><use transform="matrix(0.061728395061728385,0,0,0.061728395061728385,118.33333333333331,0)" xlink:href="#aU"/><use transform="matrix(0.061728395061728385,0,0,0.061728395061728385,130.67901234567898,0)" xlink:href="#bk"/><use transform="matrix(0.061728395061728385,0,0,0.061728395061728385,135.55555555555551,0)" xlink:href="#bk"/><use transform="matrix(0.061728395061728385,0,0,0.061728395061728385,140.43209876543204,0)" xlink:href="#aN"/><use transform="matrix(0.061728395061728385,0,0,0.061728395061728385,152.77777777777771,0)" xlink:href="#aK"/><use transform="matrix(0.061728395061728385,0,0,0.061728395061728385,165.12345679012338,0)" xlink:href="#bc"/><use transform="matrix(0.061728395061728385,0,0,0.061728395061728385,177.46913580246905,0)" xlink:href="#aN"/></g><g id="ag"><use transform="matrix(0.061728395061728385,0,0,0.061728395061728385,0,0)" xlink:href="#aV"/><use transform="matrix(0.061728395061728385,0,0,0.061728395061728385,11.111111111111109,0)" xlink:href="#aJ"/><use transform="matrix(0.061728395061728385,0,0,0.061728395061728385,23.456790123456784,0)" xlink:href="#aK"/><use transform="matrix(0.061728395061728385,0,0,0.061728395061728385,35.80246913580246,0)" xlink:href="#aH"/><use transform="matrix(0.061728395061728385,0,0,0.061728395061728385,41.9753086419753,0)" xlink:href="#be"/><use transform="matrix(0.061728395061728385,0,0,0.061728395061728385,46.85185185185185,0)" xlink:href="#bc"/><use transform="matrix(0.061728395061728385,0,0,0.061728395061728385,59.197530864197525,0)" xlink:href="#aZ"/><use transform="matrix(0.061728395061728385,0,0,0.061728395061728385,71.5432098765432,0)" xlink:href="#aI"/><use transform="matrix(0.061728395061728385,0,0,0.061728395061728385,78.88888888888889,0)" xlink:href="#aU"/><use transform="matrix(0.061728395061728385,0,0,0.061728395061728385,91.23456790123456,0)" xlink:href="#aL"/><use transform="matrix(0.061728395061728385,0,0,0.061728395061728385,97.40740740740739,0)" xlink:href="#be"/><use transform="matrix(0.061728395061728385,0,0,0.061728395061728385,102.28395061728394,0)" xlink:href="#aJ"/><use transform="matrix(0.061728395061728385,0,0,0.061728395061728385,114.62962962962962,0)" xlink:href="#aK"/></g><g id="ah"><use transform="matrix(0.061728395061728385,0,0,0.061728395061728385,0,0)" xlink:href="#be"/><use transform="matrix(0.061728395061728385,0,0,0.061728395061728385,4.876543209876543,0)" xlink:href="#aK"/><use transform="matrix(0.061728395061728385,0,0,0.061728395061728385,17.22222222222222,0)" xlink:href="#aL"/></g><g id="ai"><use transform="matrix(0.061728395061728385,0,0,0.061728395061728385,0,0)" xlink:href="#aA"/><use transform="matrix(0.061728395061728385,0,0,0.061728395061728385,12.96296296296296,0)" xlink:href="#aA"/><use transform="matrix(0.061728395061728385,0,0,0.061728395061728385,25.92592592592592,0)" xlink:href="#ay"/><use transform="matrix(0.061728395061728385,0,0,0.061728395061728385,38.271604938271594,0)" xlink:href="#aB"/><use transform="matrix(0.061728395061728385,0,0,0.061728395061728385,50.61728395061727,0)" xlink:href="#aC"/><use transform="matrix(0.061728395061728385,0,0,0.061728395061728385,61.72839506172838,0)" xlink:href="#aD"/><use transform="matrix(0.061728395061728385,0,0,0.061728395061728385,67.90123456790121,0)" xlink:href="#av"/><use transform="matrix(0.061728395061728385,0,0,0.061728395061728385,75.2469135802469,0)" xlink:href="#ay"/><use transform="matrix(0.061728395061728385,0,0,0.061728395061728385,87.59259259259258,0)" xlink:href="#aE"/><use transform="matrix(0.061728395061728385,0,0,0.061728395061728385,98.7037037037037,0)" xlink:href="#aD"/><use transform="matrix(0.061728395061728385,0,0,0.061728395061728385,104.87654320987653,0)" xlink:href="#aF"/><use transform="matrix(0.061728395061728385,0,0,0.061728395061728385,117.83950617283949,0)" xlink:href="#aF"/></g><path d="M67-158c15-20 31-36 64-36 94 0 33 127 27 194h-32l25-140c3-38-53-32-70-12C52-117 51-51 37 0H6l51-261h31" id="bx"/><path d="M6 0l50-261h32L37 0H6" id="by"/><path d="M103-194c29 0 47 14 56 36 2-11 5-23 8-32h30L160-5C157 61 82 97 21 62 9 55 4 45 1 30l28-7c7 42 83 31 92-3 4-16 9-38 13-55-13 20-29 36-62 36-40 0-60-25-60-64 0-71 23-131 91-131zm4 24c-53 0-58 54-61 104-2 27 10 44 36 44 49 0 65-50 67-102 1-29-15-46-42-46" id="bz"/><g id="aj"><use transform="matrix(0.061728395061728385,0,0,0.061728395061728385,0,0)" xlink:href="#at"/><use transform="matrix(0.061728395061728385,0,0,0.061728395061728385,15.987654320987652,0)" xlink:href="#bx"/><use transform="matrix(0.061728395061728385,0,0,0.061728395061728385,28.33333333333333,0)" xlink:href="#ay"/><use transform="matrix(0.061728395061728385,0,0,0.061728395061728385,40.679012345679006,0)" xlink:href="#by"/><use transform="matrix(0.061728395061728385,0,0,0.061728395061728385,45.55555555555555,0)" xlink:href="#by"/><use transform="matrix(0.061728395061728385,0,0,0.061728395061728385,50.432098765432094,0)" xlink:href="#ax"/><use transform="matrix(0.061728395061728385,0,0,0.061728395061728385,62.77777777777777,0)" xlink:href="#aw"/><use transform="matrix(0.061728395061728385,0,0,0.061728395061728385,75.12345679012344,0)" xlink:href="#bz"/><use transform="matrix(0.061728395061728385,0,0,0.061728395061728385,87.46913580246911,0)" xlink:href="#ax"/></g><g id="ak"><use transform="matrix(0.061728395061728385,0,0,0.061728395061728385,0,0)" xlink:href="#aY"/><use transform="matrix(0.061728395061728385,0,0,0.061728395061728385,15.987654320987652,0)" xlink:href="#aN"/><use transform="matrix(0.061728395061728385,0,0,0.061728395061728385,28.33333333333333,0)" xlink:href="#aO"/><use transform="matrix(0.061728395061728385,0,0,0.061728395061728385,39.444444444444436,0)" xlink:href="#aJ"/><use transform="matrix(0.061728395061728385,0,0,0.061728395061728385,51.79012345679011,0)" xlink:href="#aZ"/><use transform="matrix(0.061728395061728385,0,0,0.061728395061728385,64.1358024691358,0)" xlink:href="#aI"/><use transform="matrix(0.061728395061728385,0,0,0.061728395061728385,71.48148148148148,0)" xlink:href="#aV"/><use transform="matrix(0.061728395061728385,0,0,0.061728395061728385,82.5925925925926,0)" xlink:href="#aN"/><use transform="matrix(0.061728395061728385,0,0,0.061728395061728385,94.93827160493828,0)" xlink:href="#aM"/><use transform="matrix(0.061728395061728385,0,0,0.061728395061728385,110.92592592592592,0)" xlink:href="#bp"/><use transform="matrix(0.061728395061728385,0,0,0.061728395061728385,123.2716049382716,0)" xlink:href="#aU"/><use transform="matrix(0.061728395061728385,0,0,0.061728395061728385,135.61728395061726,0)" xlink:href="#bk"/><use transform="matrix(0.061728395061728385,0,0,0.061728395061728385,140.4938271604938,0)" xlink:href="#bk"/><use transform="matrix(0.061728395061728385,0,0,0.061728395061728385,145.37037037037032,0)" xlink:href="#aN"/><use transform="matrix(0.061728395061728385,0,0,0.061728395061728385,157.716049382716,0)" xlink:href="#aK"/><use transform="matrix(0.061728395061728385,0,0,0.061728395061728385,170.06172839506166,0)" xlink:href="#bc"/><use transform="matrix(0.061728395061728385,0,0,0.061728395061728385,182.40740740740733,0)" xlink:href="#aN"/></g><g id="al"><use transform="matrix(0.061728395061728385,0,0,0.061728395061728385,0,0)" xlink:href="#aI"/><use transform="matrix(0.061728395061728385,0,0,0.061728395061728385,7.345679012345678,0)" xlink:href="#aN"/><use transform="matrix(0.061728395061728385,0,0,0.061728395061728385,19.691358024691354,0)" xlink:href="#aO"/><use transform="matrix(0.061728395061728385,0,0,0.061728395061728385,30.80246913580246,0)" xlink:href="#aJ"/><use transform="matrix(0.061728395061728385,0,0,0.061728395061728385,43.14814814814814,0)" xlink:href="#aZ"/><use transform="matrix(0.061728395061728385,0,0,0.061728395061728385,55.493827160493815,0)" xlink:href="#aI"/><use transform="matrix(0.061728395061728385,0,0,0.061728395061728385,62.83950617283949,0)" xlink:href="#aV"/><use transform="matrix(0.061728395061728385,0,0,0.061728395061728385,73.9506172839506,0)" xlink:href="#aN"/><use transform="matrix(0.061728395061728385,0,0,0.061728395061728385,86.29629629629628,0)" xlink:href="#aS"/></g><g id="am"><use transform="matrix(0.061728395061728385,0,0,0.061728395061728385,0,0)" xlink:href="#aY"/><use transform="matrix(0.061728395061728385,0,0,0.061728395061728385,15.987654320987652,0)" xlink:href="#aN"/><use transform="matrix(0.061728395061728385,0,0,0.061728395061728385,28.33333333333333,0)" xlink:href="#aO"/><use transform="matrix(0.061728395061728385,0,0,0.061728395061728385,39.444444444444436,0)" xlink:href="#aJ"/><use transform="matrix(0.061728395061728385,0,0,0.061728395061728385,51.79012345679011,0)" xlink:href="#aZ"/><use transform="matrix(0.061728395061728385,0,0,0.061728395061728385,64.1358024691358,0)" xlink:href="#aI"/><use transform="matrix(0.061728395061728385,0,0,0.061728395061728385,71.48148148148148,0)" xlink:href="#aV"/><use transform="matrix(0.061728395061728385,0,0,0.061728395061728385,82.5925925925926,0)" xlink:href="#aN"/><use transform="matrix(0.061728395061728385,0,0,0.061728395061728385,94.93827160493828,0)" xlink:href="#aP"/><use transform="matrix(0.061728395061728385,0,0,0.061728395061728385,101.11111111111111,0)" xlink:href="#ba"/><use transform="matrix(0.061728395061728385,0,0,0.061728395061728385,113.45679012345678,0)" xlink:href="#aR"/></g><g id="an"><use transform="matrix(0.061728395061728385,0,0,0.061728395061728385,0,0)" xlink:href="#at"/><use transform="matrix(0.061728395061728385,0,0,0.061728395061728385,15.987654320987652,0)" xlink:href="#ay"/><use transform="matrix(0.061728395061728385,0,0,0.061728395061728385,28.33333333333333,0)" xlink:href="#av"/><use transform="matrix(0.061728395061728385,0,0,0.061728395061728385,35.679012345679006,0)" xlink:href="#az"/></g><g id="ao"><use transform="matrix(0.061728395061728385,0,0,0.061728395061728385,0,0)" xlink:href="#be"/><use transform="matrix(0.061728395061728385,0,0,0.061728395061728385,4.876543209876543,0)" xlink:href="#bf"/></g><path fill="#333" d="M23 0v-37h61v-169l-59 37v-38l62-41h46v211h57V0H23" id="bA"/><use transform="matrix(0.04938271604938272,0,0,0.04938271604938272,0,0)" xlink:href="#bA" id="ap"/><path fill="#333" d="M101-251c68 0 84 54 84 127C185-50 166 4 99 4S15-52 14-124c-1-75 17-127 87-127zm-1 216c37-5 36-46 36-89s4-89-36-89c-39 0-36 45-36 89 0 43-3 85 36 89" id="bB"/><path fill="#333" d="M24 0v-54h51V0H24" id="bC"/><g id="aq"><use transform="matrix(0.04938271604938272,0,0,0.04938271604938272,0,0)" xlink:href="#bB"/><use transform="matrix(0.04938271604938272,0,0,0.04938271604938272,9.876543209876544,0)" xlink:href="#bC"/><use transform="matrix(0.04938271604938272,0,0,0.04938271604938272,14.814814814814817,0)" xlink:href="#bC"/><use transform="matrix(0.04938271604938272,0,0,0.04938271604938272,19.75308641975309,0)" xlink:href="#bA"/></g><path fill="#333" d="M182-182c0 78-84 86-111 141h115V0H12c-6-101 99-100 120-180 1-22-12-31-33-32-23 0-32 14-35 34l-49-3c5-45 32-70 84-70 51 0 83 22 83 69" id="bD"/><g id="ar"><use transform="matrix(0.04938271604938272,0,0,0.04938271604938272,0,0)" xlink:href="#bB"/><use transform="matrix(0.04938271604938272,0,0,0.04938271604938272,9.876543209876544,0)" xlink:href="#bC"/><use transform="matrix(0.04938271604938272,0,0,0.04938271604938272,14.814814814814817,0)" xlink:href="#bC"/><use transform="matrix(0.04938271604938272,0,0,0.04938271604938272,19.75308641975309,0)" xlink:href="#bA"/><use transform="matrix(0.04938271604938272,0,0,0.04938271604938272,29.629629629629633,0)" xlink:href="#bD"/></g><path fill="#333" d="M115-159c48 0 72 30 72 78 0 54-30 85-83 85-64 0-91-50-91-122 0-98 58-163 141-120 15 8 21 24 27 44l-47 6c-5-31-48-31-61-4-7 14-11 33-11 60 9-17 28-27 53-27zM102-35c24 0 36-20 36-45s-11-43-37-43c-23 0-36 14-36 38 0 27 11 50 37 50" id="bE"/><path fill="#333" d="M138-131c27 9 52 24 51 61 0 53-36 74-89 74S11-19 11-69c0-35 22-54 51-61-78-25-46-121 38-121 51 0 83 19 83 66 0 30-18 49-45 54zm-38-16c24 0 32-13 32-36 1-23-11-34-32-34-22 0-33 12-32 34 0 22 9 36 32 36zm1 116c27 0 37-17 37-43 0-25-13-39-39-39-24 0-37 15-37 40 0 27 11 42 39 42" id="bF"/><g id="as"><use transform="matrix(0.04938271604938272,0,0,0.04938271604938272,0,0)" xlink:href="#bE"/><use transform="matrix(0.04938271604938272,0,0,0.04938271604938272,9.876543209876544,0)" xlink:href="#bC"/><use transform="matrix(0.04938271604938272,0,0,0.04938271604938272,14.814814814814817,0)" xlink:href="#bC"/><use transform="matrix(0.04938271604938272,0,0,0.04938271604938272,19.75308641975309,0)" xlink:href="#bF"/></g></defs></g></svg>