<svg xmlns="http://www.w3.org/2000/svg" xmlns:xlink="http://www.w3.org/1999/xlink" xmlns:lucid="lucid" width="1801" height="274"><g transform="translate(1820.500000007527 160.50000001044955)" lucid:page-tab-id="0_0"><path d="M-620-154a6 6 0 0 1 6-6h288a6 6 0 0 1 6 6V58a6 6 0 0 1-6 6h-288a6 6 0 0 1-6-6z" stroke="#3a414a" fill="#fff"/><path d="M-620-90.67h300M-620 .17h300" stroke="#3a414a" fill="none"/><use xlink:href="#a" transform="matrix(1,0,0,1,-611.9999999999999,-152) translate(54.43827160493828 18.11111111111111)"/><use xlink:href="#b" transform="matrix(1,0,0,1,-611.9999999999999,-152) translate(80.30246913580248 44.77777777777777)"/><use xlink:href="#c" transform="matrix(1,0,0,1,-607.9999999999999,-82.66666666666667) translate(0 28.61111111111111)"/><use xlink:href="#d" transform="matrix(1,0,0,1,-607.9999999999999,-82.66666666666667) translate(13.518518518518515 28.61111111111111)"/><use xlink:href="#c" transform="matrix(1,0,0,1,-607.9999999999999,-82.66666666666667) translate(0 55.27777777777777)"/><use xlink:href="#e" transform="matrix(1,0,0,1,-607.9999999999999,-82.66666666666667) translate(13.518518518518515 55.27777777777777)"/><path d="M-1820-154a6 6 0 0 1 6-6h248a6 6 0 0 1 6 6v261a6 6 0 0 1-6 6h-248a6 6 0 0 1-6-6z" stroke="#3a414a" fill="#fff"/><path d="M-1820-90.67h260m-260 139.9h260" stroke="#3a414a" fill="none"/><use xlink:href="#a" transform="matrix(1,0,0,1,-1812,-152) translate(34.43827160493828 18.11111111111111)"/><use xlink:href="#f" transform="matrix(1,0,0,1,-1812,-152) translate(74.53086419753086 44.77777777777777)"/><use xlink:href="#g" transform="matrix(1,0,0,1,-1808,-82.66666666666667) translate(0 27.866673777777788)"/><use xlink:href="#h" transform="matrix(1,0,0,1,-1808,-82.66666666666667) translate(12.977775074074074 27.866673777777788)"/><use xlink:href="#g" transform="matrix(1,0,0,1,-1808,-82.66666666666667) translate(0 53.46666844444445)"/><use xlink:href="#i" transform="matrix(1,0,0,1,-1808,-82.66666666666667) translate(12.977775074074074 53.46666844444445)"/><use xlink:href="#g" transform="matrix(1,0,0,1,-1808,-82.66666666666667) translate(0 79.06666311111111)"/><use xlink:href="#j" transform="matrix(1,0,0,1,-1808,-82.66666666666667) translate(12.977775074074074 79.06666311111111)"/><use xlink:href="#g" transform="matrix(1,0,0,1,-1808,-82.66666666666667) translate(0 104.66665777777777)"/><use xlink:href="#k" transform="matrix(1,0,0,1,-1808,-82.66666666666667) translate(12.977775074074074 104.66665777777777)"/><path d="M-1420-146.5a6 6 0 0 1 6-6h228a6 6 0 0 1 6 6v231a6 6 0 0 1-6 6h-228a6 6 0 0 1-6-6z" stroke="#3a414a" fill="#fff"/><path d="M-1420-83.17h240m-240 113.75h240" stroke="#3a414a" fill="none"/><g><use xlink:href="#a" transform="matrix(1,0,0,1,-1412,-144.4999499999999) translate(24.43827160493828 18.11111111111111)"/><use xlink:href="#l" transform="matrix(1,0,0,1,-1412,-144.4999499999999) translate(90.42592592592592 44.77777777777777)"/></g><g><use xlink:href="#m" transform="matrix(1,0,0,1,-1408,-75.16661666666657) translate(0 26.77777777777778)"/><use xlink:href="#n" transform="matrix(1,0,0,1,-1408,-75.16661666666657) translate(13.518518518518519 26.77777777777778)"/><use xlink:href="#m" transform="matrix(1,0,0,1,-1408,-75.16661666666657) translate(0 53.44444444444445)"/><use xlink:href="#o" transform="matrix(1,0,0,1,-1408,-75.16661666666657) translate(13.518518518518519 53.44444444444445)"/><use xlink:href="#m" transform="matrix(1,0,0,1,-1408,-75.16661666666657) translate(0 80.11111111111111)"/><use xlink:href="#p" transform="matrix(1,0,0,1,-1408,-75.16661666666657) translate(13.518518518518519 80.11111111111111)"/></g><path d="M-220-154a6 6 0 0 1 6-6h188a6 6 0 0 1 6 6V58a6 6 0 0 1-6 6h-188a6 6 0 0 1-6-6z" stroke="#3a414a" fill="#fff"/><path d="M-220-90.67h200M-220 .17h200" stroke="#3a414a" fill="none"/><g><use xlink:href="#a" transform="matrix(1,0,0,1,-212,-152) translate(4.438271604938279 18.11111111111111)"/><use xlink:href="#q" transform="matrix(1,0,0,1,-212,-152) translate(38.14197530864199 44.77777777777777)"/></g><g><use xlink:href="#c" transform="matrix(1,0,0,1,-208,-82.66666666666667) translate(0 28.61111111111111)"/><use xlink:href="#r" transform="matrix(1,0,0,1,-208,-82.66666666666667) translate(13.518518518518515 28.61111111111111)"/><use xlink:href="#c" transform="matrix(1,0,0,1,-208,-82.66666666666667) translate(0 55.27777777777777)"/><use xlink:href="#s" transform="matrix(1,0,0,1,-208,-82.66666666666667) translate(13.518518518518515 55.27777777777777)"/></g><path d="M-1020-154a6 6 0 0 1 6-6h208a6 6 0 0 1 6 6v255a6 6 0 0 1-6 6h-208a6 6 0 0 1-6-6z" stroke="#3a414a" fill="#fff"/><path d="M-1020-90.67h220M-1020 48h220" stroke="#3a414a" fill="none"/><g><use xlink:href="#a" transform="matrix(1,0,0,1,-1011.9999999999995,-152) translate(14.43827160493828 18.11111111111111)"/><use xlink:href="#t" transform="matrix(1,0,0,1,-1011.9999999999995,-152) translate(75.5493827160494 44.77777777777777)"/></g><g><use xlink:href="#m" transform="matrix(1,0,0,1,-1007.9999999999995,-82.66666666666667) translate(0 25.94444444444445)"/><use xlink:href="#u" transform="matrix(1,0,0,1,-1007.9999999999995,-82.66666666666667) translate(13.518518518518519 25.94444444444445)"/><use xlink:href="#m" transform="matrix(1,0,0,1,-1007.9999999999995,-82.66666666666667) translate(0 52.61111111111112)"/><use xlink:href="#v" transform="matrix(1,0,0,1,-1007.9999999999995,-82.66666666666667) translate(13.518518518518519 52.61111111111112)"/><use xlink:href="#m" transform="matrix(1,0,0,1,-1007.9999999999995,-82.66666666666667) translate(0 79.27777777777779)"/><use xlink:href="#w" transform="matrix(1,0,0,1,-1007.9999999999995,-82.66666666666667) translate(13.518518518518519 79.27777777777779)"/><use xlink:href="#m" transform="matrix(1,0,0,1,-1007.9999999999995,-82.66666666666667) translate(0 105.94444444444446)"/><use xlink:href="#x" transform="matrix(1,0,0,1,-1007.9999999999995,-82.66666666666667) translate(13.518518518518519 105.94444444444446)"/></g><defs><path d="M18-100v-36l175-74v27L42-118l151 64v27" id="y"/><path d="M100-194c63 0 86 42 84 106H49c0 40 14 67 53 68 26 1 43-12 49-29l28 8c-11 28-37 45-77 45C44 4 14-33 15-96c1-61 26-98 85-98zm52 81c6-60-76-77-97-28-3 7-6 17-6 28h103" id="z"/><path d="M117-194c89-4 53 116 60 194h-32v-121c0-31-8-49-39-48C34-167 62-67 57 0H25l-1-190h30c1 10-1 24 2 32 11-22 29-35 61-36" id="A"/><path d="M84 4C-5 8 30-112 23-190h32v120c0 31 7 50 39 49 72-2 45-101 50-169h31l1 190h-30c-1-10 1-25-2-33-11 22-28 36-60 37" id="B"/><path d="M210-169c-67 3-38 105-44 169h-31v-121c0-29-5-50-35-48C34-165 62-65 56 0H25l-1-190h30c1 10-1 24 2 32 10-44 99-50 107 0 11-21 27-35 58-36 85-2 47 119 55 194h-31v-121c0-29-5-49-35-48" id="C"/><path d="M114-163C36-179 61-72 57 0H25l-1-190h30c1 12-1 29 2 39 6-27 23-49 58-41v29" id="D"/><path d="M141-36C126-15 110 5 73 4 37 3 15-17 15-53c-1-64 63-63 125-63 3-35-9-54-41-54-24 1-41 7-42 31l-33-3c5-37 33-52 76-52 45 0 72 20 72 64v82c-1 20 7 32 28 27v20c-31 9-61-2-59-35zM48-53c0 20 12 33 32 33 41-3 63-29 60-74-43 2-92-5-92 41" id="E"/><path d="M59-47c-2 24 18 29 38 22v24C64 9 27 4 27-40v-127H5v-23h24l9-43h21v43h35v23H59v120" id="F"/><path d="M24-231v-30h32v30H24zM24 0v-190h32V0H24" id="G"/><path d="M100-194c62-1 85 37 85 99 1 63-27 99-86 99S16-35 15-95c0-66 28-99 85-99zM99-20c44 1 53-31 53-75 0-43-8-75-51-75s-53 32-53 75 10 74 51 75" id="H"/><path d="M18-27v-27l151-64-151-65v-27l175 74v36" id="I"/><g id="a"><use transform="matrix(0.061728395061728385,0,0,0.061728395061728385,0,0)" xlink:href="#y"/><use transform="matrix(0.061728395061728385,0,0,0.061728395061728385,12.96296296296296,0)" xlink:href="#y"/><use transform="matrix(0.061728395061728385,0,0,0.061728395061728385,25.92592592592592,0)" xlink:href="#z"/><use transform="matrix(0.061728395061728385,0,0,0.061728395061728385,38.271604938271594,0)" xlink:href="#A"/><use transform="matrix(0.061728395061728385,0,0,0.061728395061728385,50.61728395061727,0)" xlink:href="#B"/><use transform="matrix(0.061728395061728385,0,0,0.061728395061728385,62.96296296296295,0)" xlink:href="#C"/><use transform="matrix(0.061728395061728385,0,0,0.061728395061728385,81.41975308641973,0)" xlink:href="#z"/><use transform="matrix(0.061728395061728385,0,0,0.061728395061728385,93.76543209876542,0)" xlink:href="#D"/><use transform="matrix(0.061728395061728385,0,0,0.061728395061728385,101.1111111111111,0)" xlink:href="#E"/><use transform="matrix(0.061728395061728385,0,0,0.061728395061728385,113.45679012345678,0)" xlink:href="#F"/><use transform="matrix(0.061728395061728385,0,0,0.061728395061728385,119.62962962962962,0)" xlink:href="#G"/><use transform="matrix(0.061728395061728385,0,0,0.061728395061728385,124.50617283950616,0)" xlink:href="#H"/><use transform="matrix(0.061728395061728385,0,0,0.061728395061728385,136.85185185185185,0)" xlink:href="#A"/><use transform="matrix(0.061728395061728385,0,0,0.061728395061728385,149.19753086419752,0)" xlink:href="#I"/><use transform="matrix(0.061728395061728385,0,0,0.061728395061728385,162.16049382716048,0)" xlink:href="#I"/></g><path d="M143 4C61 4 22-44 18-125c-5-107 100-154 193-111 17 8 29 25 37 43l-32 9c-13-25-37-40-76-40-61 0-88 39-88 99 0 61 29 100 91 101 35 0 62-11 79-27v-45h-74v-28h105v86C228-13 192 4 143 4" id="J"/><path d="M30-248c87 1 191-15 191 75 0 78-77 80-158 76V0H30v-248zm33 125c57 0 124 11 124-50 0-59-68-47-124-48v98" id="K"/><path d="M106-169C34-169 62-67 57 0H25v-261h32l-1 103c12-21 28-36 61-36 89 0 53 116 60 194h-32v-121c2-32-8-49-39-48" id="L"/><path d="M135-143c-3-34-86-38-87 0 15 53 115 12 119 90S17 21 10-45l28-5c4 36 97 45 98 0-10-56-113-15-118-90-4-57 82-63 122-42 12 7 21 19 24 35" id="M"/><g id="b"><use transform="matrix(0.061728395061728385,0,0,0.061728395061728385,0,0)" xlink:href="#J"/><use transform="matrix(0.061728395061728385,0,0,0.061728395061728385,17.28395061728395,0)" xlink:href="#E"/><use transform="matrix(0.061728395061728385,0,0,0.061728395061728385,29.629629629629626,0)" xlink:href="#C"/><use transform="matrix(0.061728395061728385,0,0,0.061728395061728385,48.08641975308642,0)" xlink:href="#z"/><use transform="matrix(0.061728395061728385,0,0,0.061728395061728385,60.432098765432094,0)" xlink:href="#K"/><use transform="matrix(0.061728395061728385,0,0,0.061728395061728385,75.24691358024691,0)" xlink:href="#L"/><use transform="matrix(0.061728395061728385,0,0,0.061728395061728385,87.59259259259258,0)" xlink:href="#E"/><use transform="matrix(0.061728395061728385,0,0,0.061728395061728385,99.93827160493825,0)" xlink:href="#M"/><use transform="matrix(0.061728395061728385,0,0,0.061728395061728385,111.04938271604937,0)" xlink:href="#z"/></g><path d="M16-82v-28h88v28H16" id="N"/><use transform="matrix(0.061728395061728385,0,0,0.061728395061728385,0,0)" xlink:href="#N" id="c"/><g id="d"><use transform="matrix(0.061728395061728385,0,0,0.061728395061728385,0,0)" xlink:href="#C"/><use transform="matrix(0.061728395061728385,0,0,0.061728395061728385,18.456790123456788,0)" xlink:href="#E"/><use transform="matrix(0.061728395061728385,0,0,0.061728395061728385,30.802469135802465,0)" xlink:href="#G"/><use transform="matrix(0.061728395061728385,0,0,0.061728395061728385,35.679012345679006,0)" xlink:href="#A"/><use transform="matrix(0.061728395061728385,0,0,0.061728395061728385,48.02469135802468,0)" xlink:href="#K"/><use transform="matrix(0.061728395061728385,0,0,0.061728395061728385,62.83950617283949,0)" xlink:href="#L"/><use transform="matrix(0.061728395061728385,0,0,0.061728395061728385,75.18518518518516,0)" xlink:href="#E"/><use transform="matrix(0.061728395061728385,0,0,0.061728395061728385,87.53086419753083,0)" xlink:href="#M"/><use transform="matrix(0.061728395061728385,0,0,0.061728395061728385,98.64197530864195,0)" xlink:href="#z"/></g><path d="M85-194c31 0 48 13 60 33l-1-100h32l1 261h-30c-2-10 0-23-3-31C134-8 116 4 85 4 32 4 16-35 15-94c0-66 23-100 70-100zm9 24c-40 0-46 34-46 75 0 40 6 74 45 74 42 0 51-32 51-76 0-42-9-74-50-73" id="O"/><g id="e"><use transform="matrix(0.061728395061728385,0,0,0.061728395061728385,0,0)" xlink:href="#z"/><use transform="matrix(0.061728395061728385,0,0,0.061728395061728385,12.345679012345677,0)" xlink:href="#A"/><use transform="matrix(0.061728395061728385,0,0,0.061728395061728385,24.691358024691354,0)" xlink:href="#O"/><use transform="matrix(0.061728395061728385,0,0,0.061728395061728385,37.03703703703703,0)" xlink:href="#K"/><use transform="matrix(0.061728395061728385,0,0,0.061728395061728385,51.85185185185185,0)" xlink:href="#L"/><use transform="matrix(0.061728395061728385,0,0,0.061728395061728385,64.19753086419752,0)" xlink:href="#E"/><use transform="matrix(0.061728395061728385,0,0,0.061728395061728385,76.54320987654319,0)" xlink:href="#M"/><use transform="matrix(0.061728395061728385,0,0,0.061728395061728385,87.6543209876543,0)" xlink:href="#z"/></g><path d="M233-177c-1 41-23 64-60 70L243 0h-38l-65-103H63V0H30v-248c88 3 205-21 203 71zM63-129c60-2 137 13 137-47 0-61-80-42-137-45v92" id="P"/><path d="M96-169c-40 0-48 33-48 73s9 75 48 75c24 0 41-14 43-38l32 2c-6 37-31 61-74 61-59 0-76-41-82-99-10-93 101-131 147-64 4 7 5 14 7 22l-32 3c-4-21-16-35-41-35" id="Q"/><g id="f"><use transform="matrix(0.061728395061728385,0,0,0.061728395061728385,0,0)" xlink:href="#P"/><use transform="matrix(0.061728395061728385,0,0,0.061728395061728385,15.987654320987652,0)" xlink:href="#z"/><use transform="matrix(0.061728395061728385,0,0,0.061728395061728385,28.33333333333333,0)" xlink:href="#M"/><use transform="matrix(0.061728395061728385,0,0,0.061728395061728385,39.444444444444436,0)" xlink:href="#H"/><use transform="matrix(0.061728395061728385,0,0,0.061728395061728385,51.79012345679011,0)" xlink:href="#B"/><use transform="matrix(0.061728395061728385,0,0,0.061728395061728385,64.1358024691358,0)" xlink:href="#D"/><use transform="matrix(0.061728395061728385,0,0,0.061728395061728385,71.48148148148148,0)" xlink:href="#Q"/><use transform="matrix(0.061728395061728385,0,0,0.061728395061728385,82.5925925925926,0)" xlink:href="#z"/></g><use transform="matrix(0.05925924691358024,0,0,0.05925924691358024,0,0)" xlink:href="#N" id="g"/><path d="M24 0v-261h32V0H24" id="R"/><g id="h"><use transform="matrix(0.05925924691358024,0,0,0.05925924691358024,0,0)" xlink:href="#K"/><use transform="matrix(0.05925924691358024,0,0,0.05925924691358024,14.222219259259258,0)" xlink:href="#R"/><use transform="matrix(0.05925924691358024,0,0,0.05925924691358024,18.903699765432098,0)" xlink:href="#E"/><use transform="matrix(0.05925924691358024,0,0,0.05925924691358024,30.755549148148145,0)" xlink:href="#A"/><use transform="matrix(0.05925924691358024,0,0,0.05925924691358024,42.607398530864195,0)" xlink:href="#F"/></g><path d="M205 0l-28-72H64L36 0H1l101-248h38L239 0h-34zm-38-99l-47-123c-12 45-31 82-46 123h93" id="S"/><g id="i"><use transform="matrix(0.05925924691358024,0,0,0.05925924691358024,0,0)" xlink:href="#S"/><use transform="matrix(0.05925924691358024,0,0,0.05925924691358024,14.222219259259258,0)" xlink:href="#A"/><use transform="matrix(0.05925924691358024,0,0,0.05925924691358024,26.07406864197531,0)" xlink:href="#G"/><use transform="matrix(0.05925924691358024,0,0,0.05925924691358024,30.755549148148145,0)" xlink:href="#C"/><use transform="matrix(0.05925924691358024,0,0,0.05925924691358024,48.47406397530864,0)" xlink:href="#E"/><use transform="matrix(0.05925924691358024,0,0,0.05925924691358024,60.325913358024685,0)" xlink:href="#R"/></g><path d="M63-220v92h138v28H63V0H30v-248h175v28H63" id="T"/><path d="M177-190C167-65 218 103 67 71c-23-6-38-20-44-43l32-5c15 47 100 32 89-28v-30C133-14 115 1 83 1 29 1 15-40 15-95c0-56 16-97 71-98 29-1 48 16 59 35 1-10 0-23 2-32h30zM94-22c36 0 50-32 50-73 0-42-14-75-50-75-39 0-46 34-46 75s6 73 46 73" id="U"/><g id="j"><use transform="matrix(0.05925924691358024,0,0,0.05925924691358024,0,0)" xlink:href="#T"/><use transform="matrix(0.05925924691358024,0,0,0.05925924691358024,12.977775074074072,0)" xlink:href="#B"/><use transform="matrix(0.05925924691358024,0,0,0.05925924691358024,24.82962445679012,0)" xlink:href="#A"/><use transform="matrix(0.05925924691358024,0,0,0.05925924691358024,36.68147383950617,0)" xlink:href="#U"/><use transform="matrix(0.05925924691358024,0,0,0.05925924691358024,48.533323222222215,0)" xlink:href="#G"/></g><path d="M33 0v-248h34V0H33" id="V"/><g id="k"><use transform="matrix(0.05925924691358024,0,0,0.05925924691358024,0,0)" xlink:href="#V"/><use transform="matrix(0.05925924691358024,0,0,0.05925924691358024,5.925924691358024,0)" xlink:href="#A"/><use transform="matrix(0.05925924691358024,0,0,0.05925924691358024,17.777774074074074,0)" xlink:href="#M"/><use transform="matrix(0.05925924691358024,0,0,0.05925924691358024,28.444438518518517,0)" xlink:href="#z"/><use transform="matrix(0.05925924691358024,0,0,0.05925924691358024,40.296287901234564,0)" xlink:href="#Q"/><use transform="matrix(0.05925924691358024,0,0,0.05925924691358024,50.96295234567901,0)" xlink:href="#F"/></g><g id="l"><use transform="matrix(0.061728395061728385,0,0,0.061728395061728385,0,0)" xlink:href="#V"/><use transform="matrix(0.061728395061728385,0,0,0.061728395061728385,6.1728395061728385,0)" xlink:href="#F"/><use transform="matrix(0.061728395061728385,0,0,0.061728395061728385,12.345679012345677,0)" xlink:href="#z"/><use transform="matrix(0.061728395061728385,0,0,0.061728395061728385,24.691358024691354,0)" xlink:href="#C"/></g><use transform="matrix(0.06172839506172839,0,0,0.06172839506172839,0,0)" xlink:href="#N" id="m"/><path d="M140-251c81 0 123 46 123 126C263-53 228-8 163 1c7 30 30 48 69 40v23c-55 16-95-15-103-61C56-3 17-48 17-125c0-80 42-126 123-126zm0 227c63 0 89-41 89-101s-29-99-89-99c-61 0-89 39-89 99S79-25 140-24" id="W"/><g id="n"><use transform="matrix(0.06172839506172839,0,0,0.06172839506172839,0,0)" xlink:href="#W"/><use transform="matrix(0.06172839506172839,0,0,0.06172839506172839,17.28395061728395,0)" xlink:href="#B"/><use transform="matrix(0.06172839506172839,0,0,0.06172839506172839,29.629629629629626,0)" xlink:href="#G"/><use transform="matrix(0.06172839506172839,0,0,0.06172839506172839,34.50617283950617,0)" xlink:href="#R"/><use transform="matrix(0.06172839506172839,0,0,0.06172839506172839,39.382716049382715,0)" xlink:href="#R"/></g><path d="M143 0L79-87 56-68V0H24v-261h32v163l83-92h37l-77 82L181 0h-38" id="X"/><path d="M206 0h-36l-40-164L89 0H53L-1-190h32L70-26l43-164h34l41 164 42-164h31" id="Y"/><g id="o"><use transform="matrix(0.06172839506172839,0,0,0.06172839506172839,0,0)" xlink:href="#V"/><use transform="matrix(0.06172839506172839,0,0,0.06172839506172839,6.172839506172839,0)" xlink:href="#A"/><use transform="matrix(0.06172839506172839,0,0,0.06172839506172839,18.51851851851852,0)" xlink:href="#X"/><use transform="matrix(0.06172839506172839,0,0,0.06172839506172839,29.62962962962963,0)" xlink:href="#Y"/><use transform="matrix(0.06172839506172839,0,0,0.06172839506172839,45.617283950617285,0)" xlink:href="#z"/><use transform="matrix(0.06172839506172839,0,0,0.06172839506172839,57.96296296296296,0)" xlink:href="#R"/><use transform="matrix(0.06172839506172839,0,0,0.06172839506172839,62.839506172839506,0)" xlink:href="#R"/></g><path d="M240 0l2-218c-23 76-54 145-80 218h-23L58-218 59 0H30v-248h44l77 211c21-75 51-140 76-211h43V0h-30" id="Z"/><path d="M115-194c55 1 70 41 70 98S169 2 115 4C84 4 66-9 55-30l1 105H24l-1-265h31l2 30c10-21 28-34 59-34zm-8 174c40 0 45-34 45-75s-6-73-45-74c-42 0-51 32-51 76 0 43 10 73 51 73" id="aa"/><g id="p"><use transform="matrix(0.06172839506172839,0,0,0.06172839506172839,0,0)" xlink:href="#Z"/><use transform="matrix(0.06172839506172839,0,0,0.06172839506172839,18.456790123456788,0)" xlink:href="#E"/><use transform="matrix(0.06172839506172839,0,0,0.06172839506172839,30.80246913580247,0)" xlink:href="#A"/><use transform="matrix(0.06172839506172839,0,0,0.06172839506172839,43.148148148148145,0)" xlink:href="#B"/><use transform="matrix(0.06172839506172839,0,0,0.06172839506172839,55.49382716049382,0)" xlink:href="#M"/><use transform="matrix(0.06172839506172839,0,0,0.06172839506172839,66.60493827160494,0)" xlink:href="#Q"/><use transform="matrix(0.06172839506172839,0,0,0.06172839506172839,77.71604938271605,0)" xlink:href="#D"/><use transform="matrix(0.06172839506172839,0,0,0.06172839506172839,85.06172839506173,0)" xlink:href="#G"/><use transform="matrix(0.06172839506172839,0,0,0.06172839506172839,89.93827160493828,0)" xlink:href="#aa"/><use transform="matrix(0.06172839506172839,0,0,0.06172839506172839,102.28395061728396,0)" xlink:href="#F"/></g><path d="M127-220V0H93v-220H8v-28h204v28h-85" id="ab"/><g id="q"><use transform="matrix(0.061728395061728385,0,0,0.061728395061728385,0,0)" xlink:href="#ab"/><use transform="matrix(0.061728395061728385,0,0,0.061728395061728385,12.716049382716047,0)" xlink:href="#B"/><use transform="matrix(0.061728395061728385,0,0,0.061728395061728385,25.061728395061724,0)" xlink:href="#D"/><use transform="matrix(0.061728395061728385,0,0,0.061728395061728385,32.407407407407405,0)" xlink:href="#A"/><use transform="matrix(0.061728395061728385,0,0,0.061728395061728385,44.75308641975308,0)" xlink:href="#K"/><use transform="matrix(0.061728395061728385,0,0,0.061728395061728385,59.5679012345679,0)" xlink:href="#L"/><use transform="matrix(0.061728395061728385,0,0,0.061728395061728385,71.91358024691357,0)" xlink:href="#E"/><use transform="matrix(0.061728395061728385,0,0,0.061728395061728385,84.25925925925924,0)" xlink:href="#M"/><use transform="matrix(0.061728395061728385,0,0,0.061728395061728385,95.37037037037035,0)" xlink:href="#z"/></g><g id="r"><use transform="matrix(0.061728395061728385,0,0,0.061728395061728385,0,0)" xlink:href="#K"/><use transform="matrix(0.061728395061728385,0,0,0.061728395061728385,14.814814814814813,0)" xlink:href="#R"/><use transform="matrix(0.061728395061728385,0,0,0.061728395061728385,19.691358024691354,0)" xlink:href="#E"/><use transform="matrix(0.061728395061728385,0,0,0.061728395061728385,32.03703703703703,0)" xlink:href="#Q"/><use transform="matrix(0.061728395061728385,0,0,0.061728395061728385,43.14814814814814,0)" xlink:href="#G"/><use transform="matrix(0.061728395061728385,0,0,0.061728395061728385,48.02469135802468,0)" xlink:href="#A"/><use transform="matrix(0.061728395061728385,0,0,0.061728395061728385,60.37037037037036,0)" xlink:href="#U"/><use transform="matrix(0.061728395061728385,0,0,0.061728395061728385,72.71604938271604,0)" xlink:href="#K"/><use transform="matrix(0.061728395061728385,0,0,0.061728395061728385,87.53086419753085,0)" xlink:href="#L"/><use transform="matrix(0.061728395061728385,0,0,0.061728395061728385,99.87654320987653,0)" xlink:href="#E"/><use transform="matrix(0.061728395061728385,0,0,0.061728395061728385,112.2222222222222,0)" xlink:href="#M"/><use transform="matrix(0.061728395061728385,0,0,0.061728395061728385,123.33333333333331,0)" xlink:href="#z"/></g><path d="M30-248c118-7 216 8 213 122C240-48 200 0 122 0H30v-248zM63-27c89 8 146-16 146-99s-60-101-146-95v194" id="ac"/><g id="s"><use transform="matrix(0.061728395061728385,0,0,0.061728395061728385,0,0)" xlink:href="#ac"/><use transform="matrix(0.061728395061728385,0,0,0.061728395061728385,15.987654320987652,0)" xlink:href="#D"/><use transform="matrix(0.061728395061728385,0,0,0.061728395061728385,23.33333333333333,0)" xlink:href="#E"/><use transform="matrix(0.061728395061728385,0,0,0.061728395061728385,35.679012345679006,0)" xlink:href="#Y"/><use transform="matrix(0.061728395061728385,0,0,0.061728395061728385,51.66666666666666,0)" xlink:href="#K"/><use transform="matrix(0.061728395061728385,0,0,0.061728395061728385,66.48148148148147,0)" xlink:href="#L"/><use transform="matrix(0.061728395061728385,0,0,0.061728395061728385,78.82716049382714,0)" xlink:href="#E"/><use transform="matrix(0.061728395061728385,0,0,0.061728395061728385,91.1728395061728,0)" xlink:href="#M"/><use transform="matrix(0.061728395061728385,0,0,0.061728395061728385,102.28395061728392,0)" xlink:href="#z"/></g><path d="M212-179c-10-28-35-45-73-45-59 0-87 40-87 99 0 60 29 101 89 101 43 0 62-24 78-52l27 14C228-24 195 4 139 4 59 4 22-46 18-125c-6-104 99-153 187-111 19 9 31 26 39 46" id="ad"/><g id="t"><use transform="matrix(0.061728395061728385,0,0,0.061728395061728385,0,0)" xlink:href="#ad"/><use transform="matrix(0.061728395061728385,0,0,0.061728395061728385,15.987654320987652,0)" xlink:href="#H"/><use transform="matrix(0.061728395061728385,0,0,0.061728395061728385,28.33333333333333,0)" xlink:href="#R"/><use transform="matrix(0.061728395061728385,0,0,0.061728395061728385,33.20987654320987,0)" xlink:href="#H"/><use transform="matrix(0.061728395061728385,0,0,0.061728395061728385,45.55555555555555,0)" xlink:href="#D"/></g><path d="M160-131c35 5 61 23 61 61C221 17 115-2 30 0v-248c76 3 177-17 177 60 0 33-19 50-47 57zm-97-11c50-1 110 9 110-42 0-47-63-36-110-37v79zm0 115c55-2 124 14 124-45 0-56-70-42-124-44v89" id="ae"/><g id="u"><use transform="matrix(0.06172839506172839,0,0,0.06172839506172839,0,0)" xlink:href="#ae"/><use transform="matrix(0.06172839506172839,0,0,0.06172839506172839,14.814814814814813,0)" xlink:href="#R"/><use transform="matrix(0.06172839506172839,0,0,0.06172839506172839,19.691358024691354,0)" xlink:href="#E"/><use transform="matrix(0.06172839506172839,0,0,0.06172839506172839,32.03703703703703,0)" xlink:href="#Q"/><use transform="matrix(0.06172839506172839,0,0,0.06172839506172839,43.14814814814814,0)" xlink:href="#X"/></g><g id="v"><use transform="matrix(0.06172839506172839,0,0,0.06172839506172839,0,0)" xlink:href="#J"/><use transform="matrix(0.06172839506172839,0,0,0.06172839506172839,17.28395061728395,0)" xlink:href="#D"/><use transform="matrix(0.06172839506172839,0,0,0.06172839506172839,24.629629629629626,0)" xlink:href="#z"/><use transform="matrix(0.06172839506172839,0,0,0.06172839506172839,36.9753086419753,0)" xlink:href="#z"/><use transform="matrix(0.06172839506172839,0,0,0.06172839506172839,49.32098765432098,0)" xlink:href="#A"/></g><path d="M137-103V0h-34v-103L8-248h37l75 118 75-118h37" id="af"/><g id="w"><use transform="matrix(0.06172839506172839,0,0,0.06172839506172839,0,0)" xlink:href="#af"/><use transform="matrix(0.06172839506172839,0,0,0.06172839506172839,12.777777777777777,0)" xlink:href="#z"/><use transform="matrix(0.06172839506172839,0,0,0.06172839506172839,25.123456790123456,0)" xlink:href="#R"/><use transform="matrix(0.06172839506172839,0,0,0.06172839506172839,30,0)" xlink:href="#R"/><use transform="matrix(0.06172839506172839,0,0,0.06172839506172839,34.876543209876544,0)" xlink:href="#H"/><use transform="matrix(0.06172839506172839,0,0,0.06172839506172839,47.22222222222222,0)" xlink:href="#Y"/></g><g id="x"><use transform="matrix(0.06172839506172839,0,0,0.06172839506172839,0,0)" xlink:href="#P"/><use transform="matrix(0.06172839506172839,0,0,0.06172839506172839,15.987654320987653,0)" xlink:href="#z"/><use transform="matrix(0.06172839506172839,0,0,0.06172839506172839,28.333333333333332,0)" xlink:href="#O"/></g></defs></g></svg>